<?xml version="1.0" standalone="no"?>
<!DOCTYPE svg PUBLIC "-//W3C//DTD SVG 1.1//EN" "http://www.w3.org/Graphics/SVG/1.1/DTD/svg11.dtd" >
<svg xmlns="http://www.w3.org/2000/svg" xmlns:xlink="http://www.w3.org/1999/xlink" version="1.1">
<metadata>
Created by FontForge 20170731 at Sun Aug 19 14:52:07 2012
 By Aleksey,,,
RODRIGO ARAYA SALAS(RAS) 2011 // WWW.BEHANCE.NET/RASDESIGN
</metadata>
<defs>
<font id="MARI&#38;DAVIDBOLD" horiz-adv-x="300" >
  <font-face 
    font-family="MARI&#38;DAVID BOLD"
    font-weight="700"
    font-stretch="semi-expanded"
    units-per-em="1000"
    panose-1="0 0 0 0 0 0 0 0 0 0"
    ascent="800"
    descent="-200"
    x-height="746"
    cap-height="748"
    bbox="-52.4545 -100 393 769"
    underline-thickness="50"
    underline-position="-150"
    unicode-range="U+0041-00A0"
  />
<missing-glyph horiz-adv-x="152" 
 />
    <glyph glyph-name=".notdef" horiz-adv-x="152" 
 />
    <glyph glyph-name=".null" horiz-adv-x="0" 
 />
    <glyph glyph-name="nonmarkingreturn" horiz-adv-x="152" 
 />
    <glyph glyph-name="A" unicode="A" horiz-adv-x="309" 
d="M35 2q-2 2 -4.5 4t-5.5 5l-3 5v6q2 29 2.5 56t2.5 51q1 11 1.5 21.5t0.5 21.5q2 11 2.5 21t1.5 20v17t1 15q2 8 2.5 14t1.5 11q2 7 4 16t4 20l4 24t4 25q2 14 3 25t3 22t2.5 18.5t2.5 12.5q2 12 3 25q1 7 2 15t1 15q1 9 1.5 16.5t2.5 15.5q1 8 1 13v10q1 7 1.5 15.5
t2.5 22.5q3 14 5.5 28t4.5 28q3 15 5.5 28.5t5.5 26.5q3 17 5.5 23t3.5 10q4 9 12 15q4 3 12 7q5 3 9.5 4t9.5 1h6l5 -4q5 -4 9.5 -8t9.5 -9h1q5 -5 8 -9t7 -7q10 -10 13 -19l1 -1v-1q2 -4 2.5 -9.5t2.5 -13.5t2.5 -16.5t2.5 -16.5q1 -9 2 -18.5t3 -20.5q8 -35 14.5 -67.5
t12.5 -61.5q6 -26 9 -49q2 -12 4.5 -22.5t4.5 -20.5q2 -9 3.5 -17t3.5 -14q3 -11 3.5 -13.5t0.5 -4.5v-8q1 -3 1 -7.5v-9.5v-17v-13v-2q0 -5 1 -9q1 -5 1.5 -11t2.5 -14q2 -7 2.5 -15.5t2.5 -16.5q2 -10 2.5 -19t2.5 -20q4 -22 7 -46t8 -52v-4l-1 -4q-2 -7 -4 -13l-4 -12v-1
q-4 -5 -6.5 -9t-5.5 -8q-8 -12 -21 -18q-14 -5 -26 0q-5 2 -7.5 3.5t-6.5 3.5q-10 8 -15 16l-1 4v3q-1 8 -1 14.5v13.5v24v13.5t1 12.5v9.5t-1 17.5q-2 9 -3 19t-3 18q-2 10 -3 18t-3 16l-79 -5l-7 -174l-3 -5q-2 -3 -4.5 -6t-6.5 -5l-1 -1h-1q-3 -3 -11 -6q-5 -2 -9 -4
t-8 -3h-1q-10 -2 -15 -2q-4 0 -5 1q-5 1 -9 1.5t-7 2.5v1zM194 288q-2 12 -4 23t-4 20q-3 14 -5 25l-4 22q-3 15 -4 20.5t-1 7.5q-1 2 -1 5q-1 2 -1 6t-1 11l-6 21l-23 -159z" />
    <glyph glyph-name="B" unicode="B" horiz-adv-x="351" 
d="M53 6q-10 2 -14 6q-11 3 -15 15q-2 8 1 16q1 3 1.5 5.5t2.5 5.5v208q-2 35 -3 66t-3 60q0 11 -0.5 23t-1.5 25q0 12 -0.5 22t-1.5 21q-1 10 -1 18v15q0 6 -0.5 11t-0.5 8v3l1 2q2 4 3.5 12t1.5 23q2 14 2.5 26.5t1.5 24.5q1 17 1 33t1 33v8l11 10q0 3 2 9q1 3 2 6.5
t3 6.5q5 5 13 9q9 6 18 6q4 0 7.5 -0.5t6.5 -0.5h1l2 -1q4 -2 7 -2q9 1 17 2t16 3l30 3q8 2 14.5 2h11.5q7 0 20 -5t24 -13q7 -4 14 -8.5t14 -9.5q17 -12 29 -24v-1q17 -15 24 -46q4 -15 6 -30t2 -32t-0.5 -33t-2.5 -33q-3 -16 -6 -30t-8 -25q-6 -23 -21 -46
q-7 -11 -15 -20.5t-16 -17.5q-4 -4 -8 -7.5t-9 -7.5l6 -3q2 -1 4.5 -2t6.5 -3q8 -3 19 -12q5 -4 9 -7.5t9 -8.5q8 -8 11 -16q20 -12 29 -42q5 -14 7 -34.5t2 -47.5q0 -15 -1.5 -29.5t-5.5 -28.5q-4 -13 -8 -24.5t-10 -21.5q-11 -20 -22 -31l-8.5 -8.5t-7.5 -5.5
q-13 -10 -25 -11q-5 -1 -11 -1.5t-14 -0.5q-5 -2 -11.5 -4t-16.5 -4q-9 -2 -19 -3.5t-20 -3.5q-10 -1 -19.5 -2t-17.5 -3q-12 -1 -16 -1.5t-6 -0.5h-13q-4 0 -8 0.5t-9 0.5q-5 1 -9.5 2t-9.5 3zM180 434q9 8 16 17t13 20q8 23 11.5 44.5t5.5 40.5q1 18 -1 33.5t-5 26.5
q-8 23 -15 30q-9 11 -21 16h-2q-5 3 -14 3h-11t-12 -1q-4 -1 -8 -1t-8 -1l-10 -109v-155q5 2 11.5 5t12.5 6q19 11 37 25zM204 88q4 9 8 16.5t8 16.5q7 16 15 41q7 21 7 43q-5 23 -12 38q-7 17 -14 24q-9 11 -17 16q-4 2 -7.5 5t-7.5 5q-5 2 -18 3h-13.5t-13.5 -1
q-5 0 -10 -0.5t-10 -0.5v-206h85z" />
    <glyph glyph-name="C" unicode="C" 
d="M16 606q-2 15 1 28q0 10 3 24q3 15 9 25q5 11 22 26l16 12t19 12l20 10t21 9q22 9 41 9q9 2 19 3t21 2h20.5t18.5 -2q10 -1 18 -3t15 -4q5 -2 12.5 -6t9.5 -13q12 -30 -12 -45q-19 -11 -39 -11h-16q-5 0 -11 -0.5t-13 -1.5q-6 -1 -13 -1.5t-14 -2.5q-6 -1 -10.5 -2
t-8.5 -3l-3 -2h-4q-8 0 -13 -4q-5 -3 -8.5 -5.5t-7.5 -7.5q-3 -3 -6 -7t-5 -8v-499q2 -5 2.5 -9.5t2.5 -9.5h1q1 -5 1.5 -10t2.5 -10q0 -2 0.5 -4t0.5 -4q5 0 9.5 1t9.5 3h1q8 2 18 4t21 6l2 1h71q11 0 19 -1t15 -3q17 -4 28 -30l2 -3v-4q0 -14 -10 -25q-5 -6 -15 -13l-1 -1
q-6 -5 -20 -10l-2 -1h-3q-17 -2 -34.5 -3t-34.5 -3v-1l-28 -2l-28 -2q-15 -1 -27 -1.5t-21 -0.5h-1l-2 1q-28 6 -42 23q-15 15 -21 32q-8 19 -8 41l-12 81v284l12 12v114h-10z" />
    <glyph glyph-name="D" unicode="D" horiz-adv-x="331" 
d="M31 15q-7 8 -12 22l-1 3v256l12 147v290l6 5q5 6 10.5 10.5t11.5 6.5q2 0 4 0.5t3 0.5l27 13l54 -27q11 -8 23 -14.5t21 -13.5q10 -6 19.5 -12t18.5 -14q12 -7 20.5 -14t15.5 -15h2q13 -15 23.5 -39.5t16.5 -61.5q5 -32 11 -72t10 -88q2 -23 2.5 -43.5t-1.5 -42.5
q-2 -17 -4 -33.5t-4 -31.5q-6 -15 -10.5 -30.5t-6.5 -29.5v-14l-95 -142l-15 -12q-7 -7 -23 -11q-15 -6 -32 -10q-7 -2 -14.5 -2.5t-18.5 -2.5q-8 -1 -15 -1h-10q-18 0 -30 6q-5 2 -10 7.5t-9 9.5zM222 441v1q0 10 -1 21.5t-3 24.5t-4 25t-4 23q-4 14 -8 25.5t-9 20.5
q-3 11 -6.5 18.5t-5.5 12.5l-1 1q-4 5 -9 11.5t-11 9.5q-11 13 -25 22q-1 2 -2.5 2t-2.5 2l-9 -232v-135l-14 -112l14 -33v-67h17l73 126q1 4 1 10t2 20q2 13 3.5 29t3.5 36q2 19 3 38t1 39v32t-2 28z" />
    <glyph glyph-name="E" unicode="E" horiz-adv-x="321" 
d="M27 449h-19l19 53q0 19 0.5 36.5t0.5 33.5q1 14 1.5 28t0.5 28q2 14 4 23t4 15q1 5 2 9.5t3 9.5q4 7 11 14q3 3 6.5 5.5t6.5 4.5q4 4 9 6.5t12 5.5q10 5 28 10l28 8l10.5 3.5t8.5 3.5l3 2h35h21.5t21.5 -2q11 0 21 -0.5t19 -1.5l12 -3t14 -7q3 -2 9 -8q5 -10 5 -18
q0 -9 -5 -17q-3 -5 -7 -8q-5 -6 -13 -9q-4 -2 -7.5 -2t-8.5 -1t-18 -1h-43l-23 -11h-5q-5 0 -15 -2q-5 -2 -15 -4q-2 -1 -2.5 -1.5t-2.5 -1.5l-1 -1l-2 -1q-4 -3 -7.5 -5t-5.5 -4q-2 -3 -5 -5t-5 -5q-1 -1 -1.5 -2t-2.5 -3v-208l29 5h2q5 0 11 3q4 1 7 2t7 1q10 2 14 1
q8 -2 14 -6q2 -1 4.5 -1t4.5 -1q5 -1 8.5 -2t7.5 -3q5 -2 9.5 -4t7.5 -6q8 -5 10.5 -11t2.5 -11q0 -8 -3.5 -14.5t-7.5 -10.5q-9 -8 -18 -10q-9 -3 -19 -3l-71 -12h-1l-2 -1q-2 -2 -4.5 -4t-4.5 -5h-1q-2 -1 -3.5 -2t-3.5 -3l-10 -203v-23v-5v-1h96q3 1 5.5 2t4.5 1v1
q3 1 5.5 2t4.5 2q5 1 8.5 1.5t7.5 0.5q13 0 25 -3q14 -6 26 -28l1 -4v-4q0 -16 -10 -26q-3 -4 -6.5 -7t-7.5 -7h-2q-9 -6 -20 -10h-2h-2q-18 -3 -35.5 -4t-32.5 -1q-10 -1 -19 -1.5t-19 -0.5q-5 0 -9 0.5t-9 0.5q-27 0 -42 6q-15 0 -28 7t-19 16q-4 5 -7 10.5t-5 11.5v3
l-14 170h13v224z" />
    <glyph glyph-name="F" unicode="F" 
d="M38 108l-11 405l-1 11q2 16 3.5 31t3.5 30q2 13 4 25l4 24t4 21t4 17q1 16 13 30q10 12 24 21q6 5 12 7.5t13 4.5q15 6 22 6h4h6t12 1q10 2 20.5 2.5t22.5 2.5q12 1 22.5 2t20.5 2q13 1 17.5 1.5t6.5 0.5h9l5 -7q-1 -1 0 -1h4q3 -2 7 -2.5t7 -2.5q5 -2 8.5 -3t7.5 -3
q11 -5 13.5 -11t2.5 -10q0 -11 -4 -19q-3 -7 -7 -11q-5 -5 -9.5 -6.5t-7.5 -1.5q-20 -2 -38 -4t-35 -4q-7 -1 -13.5 -2t-13.5 -1q-7 -2 -13 -2.5t-11 -1.5l-10 -2t-9 -1q-1 -1 -2 -1h-1l-4 -3h-7l-1 -1q-1 -1 -3 -5q-1 -5 -1 -14q-1 -5 -1 -7v-3q0 -2 -0.5 -6.5l-1.5 -13.5
q-2 -8 -2.5 -15.5t-1.5 -15.5l-1 -1q-1 -8 -1.5 -18t-2.5 -21v-125l95 10l2 -1q6 0 10.5 -2.5t9.5 -5.5q8 -6 11 -14q2 -5 4 -10.5t2 -13.5q6 -15 -2 -27q-3 -4 -5 -7t-5 -6v-1l-2 -1q-8 -6 -19 -11l-3 -1h-98v-49l12 -113v-100q0 -9 -8 -20q-2 -5 -10 -13q-4 -3 -7.5 -6.5
t-7.5 -5.5q-11 -6 -18 -6q-16 0 -26 9q-3 4 -6.5 7.5t-6.5 7.5l-1 1q-2 5 -4.5 10t-4.5 10l-1 3v57z" />
    <glyph glyph-name="G" unicode="G" horiz-adv-x="334" 
d="M138 1h-14.5t-11.5 1q-32 2 -50 23q-9 10 -15.5 19t-11.5 19l-1 1q-5 12 -9.5 25.5t-6.5 29.5l-1 1l8 375q2 21 3 41.5t3 40.5q2 17 4.5 34t6.5 34q5 19 10 34t13 25q8 12 20 20.5t27 14.5q14 5 28 7.5t28 3.5q30 1 52 -3q7 -2 19.5 -7t15.5 -19v-2q1 -5 -2 -14t-17 -17
q-8 -3 -16 -7t-18 -7q-9 -2 -18.5 -4t-19.5 -5q-16 -3 -26 -8h-1q-4 -2 -5.5 -5.5t-2.5 -6.5q-2 -10 -3.5 -19t-3.5 -20q-1 -11 -1.5 -24t0.5 -27v-1q-1 -58 -1.5 -108.5t-2.5 -95.5v-76v-36t-1 -33v-52v-24q0 -17 6 -30q3 -5 6.5 -9t10.5 -6q2 -2 10 -2h7q8 1 15 2t15 3
t15 4l14 4q4 2 6 2v22q-1 7 -1 14v15q-1 9 -1 17.5t-1 17.5q-2 16 -2.5 35t-2.5 39q-11 0 -20.5 2t-17.5 5q-20 7 -30 21q-9 10 -12 27q-1 6 0 12.5t7 12.5t25 9q8 2 16 2.5t18 1.5l16 2t18 2h24h15t12 -1q10 -4 16 -13t10 -18v-2q0 -3 1 -9t3 -22q0 -10 0.5 -22t1.5 -28
v-29t-1 -30q-1 -16 -1 -30.5t-2 -28.5q-1 -15 -2 -27t-3 -22q-2 -13 -4.5 -20t-4.5 -12l-1 -1q-9 -11 -33 -20q-10 -4 -21 -6.5t-25 -5.5q-13 -2 -26.5 -3t-27.5 -2q-7 -1 -13.5 -1h-12.5z" />
    <glyph glyph-name="H" unicode="H" horiz-adv-x="325" 
d="M97 27q-11 -17 -32 -20q-8 -6 -18 -6q-3 0 -5 0.5t-5 1.5q-8 3 -14 11l-3 4v315l11 57v90q2 32 3 60.5t3 54.5q0 9 0.5 18.5t0.5 18.5l1 6q1 10 1 20t1 18q1 9 1 16v13v13q0 17 18 22q2 0 4.5 1t6.5 2h1l27 3l5 -6l4 -4q1 -1 2 -1l3 -1h1l20 5l-13 -260v-120h93v366l7 5
q2 2 4 3.5t5 3.5l2 1q3 2 6 2.5t6 2.5q5 1 9.5 1.5t10.5 0.5q7 0 12 -1.5t10 -3.5q8 -4 15 -11q3 -4 6 -7t5 -7l3 -4l-11 -188v-40l11 -23l-1 -140l-11 -277l-2 -3q-4 -10 -12 -16q-2 -3 -6 -6t-7 -5q-11 -6 -23 -6q-16 0 -26 9q-2 2 -5 4.5t-5 4.5l-3 3l-14 92l13 12
l-11 136h-93q2 -25 2.5 -47.5t2.5 -44.5q0 -10 0.5 -20t0.5 -21t-0.5 -20t-0.5 -17q0 -9 -0.5 -16t-1.5 -12t-1.5 -9t-1.5 -7q-2 -6 -4.5 -12.5t-7.5 -14.5z" />
    <glyph glyph-name="I" unicode="I" horiz-adv-x="140" 
d="M134 25q0 -9 -6 -17.5t-22 -10.5q-5 -1 -10.5 -1h-10.5q-4 -2 -7.5 -2.5t-6.5 -0.5q-7 0 -10 1q-8 2 -14 6h-1l-1 2q-7 4 -12 16l-4 6l10 21l-8 8v376v13v11t1 14t1 16.5t1 17.5q0 9 0.5 18.5t0.5 19.5q2 18 3 38.5t3 43.5h-10v103l4 5q8 8 18 12q2 2 4.5 2t4.5 2
q5 1 9.5 2t9.5 1h7l18 -17l16 -15v-459l12 -174v-58z" />
    <glyph glyph-name="J" unicode="J" horiz-adv-x="295" 
d="M5 50q-6 8 -10.5 14.5t-6.5 14.5q-3 7 -4 14.5t1 12.5v1q5 17 14.5 21.5t15.5 4.5h1q6 -1 12.5 -2.5t10.5 -5.5q5 -1 8 -3t8 -5q7 -7 16 -13h1q5 -2 9 -5.5t8 -6.5q14 -1 28 -1.5t25 -0.5t21.5 0.5t19.5 0.5h5q0 6 0.5 10.5t1.5 9.5l2 28l1 19l-1 19l3 88l-8 303l1 13
l4 89q-1 5 -1 14q0 4 -0.5 7.5t-0.5 5.5v9.5t2 9.5q0 9 5 17q1 3 3 5l4 4q4 5 8 6t7 2q5 1 11.5 0.5t12.5 -1.5q11 -2 17 -9q5 -3 11 -10l4 -6t5 -5l1 -2q6 -4 7 -13l2 -2l2 -68v-17l-4 -14l1 -44l-1 -21l1 -64l5 -5l4 -23l-9 -15l1 -32v-6q2 -8 2 -13v-1v-1v-3
q0 -10 -5 -20q0 -1 -1 -2l4 -23l6 -27l-4 -152v-23t-1 -22q-1 -9 -1.5 -18t-1.5 -17q-1 -11 -2 -17.5t-5 -10.5q-2 -5 -5.5 -7.5t-8.5 -6.5q-4 -5 -8 -7.5t-9 -6.5q-5 -2 -9 -4t-9 -5t-9 -4t-7 -2q-2 0 -5 -0.5t-11 -0.5h-11q-10 1 -19.5 1t-20.5 1t-23 1.5t-23 1.5
q-12 2 -22 3.5t-18 3.5q-8 1 -17 4.5t-16 11.5q-15 9 -25 23z" />
    <glyph glyph-name="K" unicode="K" horiz-adv-x="330" 
d="M36 0l-22 21l12 199v143l10 9l-10 140v204q0 17 21 29q16 9 31 9q10 0 18 -7q6 -5 10 -11q4 -4 6 -10l14 -15v-223l14 32l23 45l80 147q4 8 7 12q5 8 11 12q8 7 19 7q8 0 19 -6q4 -2 7.5 -5.5l7.5 -7.5t10 -12q5 -8 6 -15q8 -17 -6 -32q-3 -3 -9 -7l-75 -150v-22
l-77 -166l7 -14l102 -157l21 -51q6 -4 9 -7q4 -3 7 -6.5t6 -7.5q2 -5 5.5 -9t6.5 -9l6 -9l-5 -9q-2 -4 -4.5 -7.5t-5.5 -7.5h-1q-3 -4 -12 -11q-3 -4 -7 -7t-9 -6l-4 -2h-5q-13 0 -26 6q-10 4 -21 13q-6 4 -11 9l-10 10l-2 2l-68 137l-26 34v-175l-3 -10l-1 -2q0 -5 -3 -6
q-1 -7 -9 -13l-5 -5h-59z" />
    <glyph glyph-name="L" unicode="L" horiz-adv-x="286" 
d="M332 70q2 -6 2.5 -10.5t0.5 -9.5q0 -8 -7 -15q-2 -2 -5 -3.5t-6 -3.5q-1 0 -2 -1q-8 -6 -26 -11q-8 -1 -13 -1.5t-10 -0.5h-4q-2 0 -5 -1t-8 -2l-2 -1q-15 -3 -38 -6q-11 -2 -22.5 -4.5t-23.5 -4.5q-7 0 -13 -0.5t-11 -0.5q-4 0 -7.5 0.5t-5.5 0.5q-8 0 -14.5 2t-14.5 5
q-7 3 -13.5 6t-12.5 7l-10 6t-9 5q-12 7 -15 15q-3 4 -3.5 9.5t-0.5 16.5q-1 8 -1 16.5v18.5v57q0 3 0.5 7.5t0.5 8.5v13t1 14t1.5 13.5t1.5 12.5v13v31v57v80v1l5 20q0 3 -2 7l-2 6t-1 6v2l-2 3l4 38q1 29 2 55t1 49q1 11 1.5 20.5t0.5 18.5v19.5t1 16.5t1.5 15t0.5 12
q1 8 1.5 11t1.5 5q2 4 3.5 8t5.5 7q2 2 5 4.5t5 4.5q9 5 17 8l8 2l8 -6q5 -4 9 -8t9 -7l1 -1q3 -4 6 -7.5t6 -6.5q4 -4 7 -9t3 -11v-13q-2 -8 -2 -14l-2 -17l2 -143l3 -22l-8 -20q-2 -45 -2.5 -83.5t-2.5 -71.5q0 -16 -0.5 -31t-1.5 -29v-27.5t-1 -23.5t-1 -20v-17v-13
q0 -2 1 -4.5t2 -5.5q2 -5 2 -9v-8v-6q0 -7 -1 -11q0 -3 -1 -5q-2 -7 0 -13v-2v-3q6 0 10 1q12 2 25 4.5t27 4.5l28 4t27 4q28 4 41 0q3 -1 5.5 -1h3.5q5 -1 11 -3q5 -1 8.5 -3.5t6.5 -5.5q2 -3 4 -6.5t4 -8.5h1z" />
    <glyph glyph-name="M" unicode="M" horiz-adv-x="380" 
d="M27 435l-11 272l7 5q2 0 3 1t3 2q13 8 25 8h34l49 -143l20 -97l23 -65v-3l23 241l13 74l7 4q5 1 11 5l2 1q2 0 4.5 1t5.5 2q4 2 7.5 2.5t7.5 0.5q10 0 22 -5q4 -2 7.5 -5t7.5 -6q2 -3 5 -6t5 -6l4 -4v-165l2.5 -12.5t3.5 -19.5q2 -11 3.5 -24.5t3.5 -27.5q4 -33 9 -72
l32 -327v-27l-1 -2q-4 -12 -11 -20q-6 -9 -12 -15q-11 -9 -25 -9q-11 0 -19 7q-2 2 -5 4.5t-5 6.5q-5 6 -8 13l-1 4v57l-22 196l-1 10q0 -2 -1 -2q-1 -11 -3.5 -22t-5.5 -21v-9q-1 -5 -1 -9.5t-1 -11.5t-1.5 -14t-0.5 -15l-3 -30q-2 -19 -3 -39.5t-3 -43.5v-48l-2 -4
q-5 -8 -10 -13q-4 -3 -7.5 -6t-7.5 -5q-8 -5 -21 -5q-12 0 -19 3q-8 3 -12 7q-3 5 -4 8.5t-2 5.5q-2 7 -3 14t-3 14v1q-1 5 -1.5 11t-2.5 11q-1 5 -1 9.5v8.5v96l-24 81v-191v-2q-2 -5 -3.5 -9.5t-3.5 -9.5h-1l-7 -15q-2 -5 -5 -9t-6 -7q-6 -6 -16 -11q-4 -1 -7 -2t-6 -1
q-8 -4 -18 -2l-13 2v429z" />
    <glyph glyph-name="N" unicode="N" horiz-adv-x="337" 
d="M127 386l-13 37l-1 -368q0 -14 -7 -22v-1q-2 -5 -5.5 -9t-7.5 -8q-12 -9 -30 -9q-15 0 -24 6q-7 6 -12 14q-2 5 -3 9.5t-1 9.5v687l6 5l5 2.5t5 3.5h1l1 1q3 1 5.5 2t7.5 2t9.5 1.5t9.5 0.5h7l5 -5h1q3 0 9 -2q3 -1 5 -2.5t6 -3.5q12 -7 20 -26q2 -7 3.5 -14.5t3.5 -15.5
q3 -17 3 -35l10 -32l24 -46l23 -105l21 -64l-8 305l13 27q3 7 13 11l2 1h2q3 1 13 1q5 0 10.5 -1t12.5 -4q18 0 28 -10q6 -8 10 -22q1 -8 -2 -21l13 -651q0 -5 -2.5 -10t-5.5 -9q-5 -5 -12 -7.5t-18 -2.5q-6 -2 -11 -3.5t-8 -2.5q-5 -1 -9 -1.5t-8 -0.5q-7 0 -16 3
q-2 1 -6 2t-8 3q-12 3 -17.5 15.5t-7.5 17.5q-4 11 -6.5 23.5t-5.5 26.5q-2 15 -4 32.5t-4 37.5l-12 89z" />
    <glyph glyph-name="O" unicode="O" horiz-adv-x="319" 
d="M263 712q11 -10 19 -19q5 -5 9.5 -10.5t7.5 -10.5l2 -2l13 -50v-15l-11 -281v-147q0 -11 -1 -20.5t-2 -19.5l-4 -18l-4 -18q-5 -19 -14 -33q-11 -30 -40 -47q-30 -18 -75 -18q-12 -3 -23 -3q-5 0 -9.5 0.5t-9.5 1.5q-10 2 -18 6t-16 9q-7 5 -13.5 10t-12.5 12
q-6 5 -12 11.5t-12 12.5q-7 6 -12 25q-4 14 -5 31q-2 10 -3 19.5t-2 20.5q-1 10 -1.5 20.5t-0.5 21.5q-3 51 -3 111l-1 2l11 135v181v12t2 11q2 14 4 21q3 12 9 20q10 18 27 30q17 10 31 10h23q2 0 2.5 0.5t2.5 0.5q2 2 5 2.5t5 2.5l15 6h38h10t11 -1q6 -2 13.5 -4t17.5 -7
l2 -1q7 -5 13.5 -10t11.5 -11zM195 100q14 21 18 44q5 30 -1 65l-1 1v413q0 4 -5 9q-6 9 -19 17l-2 1l-1 1q-4 4 -7 6.5t-6 4.5q-8 4 -12 5v1q-2 0 -4.5 0.5t-4.5 0.5q-5 0 -13 -2l-1 -1q-6 0 -10 -3l-5 -5v-10.5t-2 -12.5q-1 -9 -2 -17.5t-2 -16.5q-2 -9 -3 -19.5t-2 -21.5
v-350q-2 -20 -0.5 -37.5t4.5 -32.5q1 -7 3 -13l4 -12q3 -10 10 -19q2 -4 5.5 -7t6.5 -5q8 -4 18 -4q26 5 34 20z" />
    <glyph glyph-name="P" unicode="P" horiz-adv-x="307" 
d="M191 224l-73 -5l5 -179l-2 -3q-3 -6 -6 -9.5t-6 -7.5q-13 -16 -37 -19q-2 0 -3 -0.5t-2 -0.5q-12 0 -19 5q-11 7 -14 14q-5 10 -5 21q-2 92 -2.5 173.5t-1.5 152.5v121v108q0 24 -0.5 43t0.5 34q0 24 0.5 30t0.5 8l1 1q3 9 19 18q5 4 11 6.5t11 4.5h1q12 3 27 8l5 1h4
q28 -6 53 -9h1q11 -3 21 -5t21 -4t18.5 -3.5t14.5 -2.5q15 -3 30 -21q10 -15 17 -29v-1q6 -16 13 -40l1 -3q-1 -38 -1.5 -73.5t-2.5 -67.5l-1 -55q-1 -14 -1 -26.5v-24.5q-1 -12 -1.5 -22.5t-1.5 -20.5q-1 -8 -1.5 -15t-1.5 -12v-1q-3 -22 -20 -41q-8 -7 -15 -13.5
t-15 -11.5q-9 -6 -18.5 -11.5t-20.5 -9.5zM118 302l51 2q1 2 2.5 2.5t2.5 2.5q2 2 3.5 5t3.5 8q2 3 3.5 8.5t3.5 11.5q0 2 0.5 7.5t1.5 13.5q1 13 3 35q1 10 1 21t1 23q1 11 1 22.5t1 23.5q1 26 1 56t1 63q-1 6 -1 12t-1 11l-2 8t-2 9l-3 3l-2 2l-1 1l-5 2.5t-11 2.5
q-8 2 -14.5 2.5t-13.5 1.5h-21z" />
    <glyph glyph-name="Q" unicode="Q" horiz-adv-x="341" 
d="M70 4q-21 8 -32 28q-5 8 -9 17t-6 18q-4 11 -6.5 22.5t-4.5 22.5v2v2q1 71 2 137t1 126q1 25 1.5 50t1.5 51q2 25 2.5 48t2.5 43q0 21 1 38.5t2 31.5q3 20 4.5 29.5t3.5 14.5q8 21 35 35q11 7 23.5 11t23.5 8q14 3 29 5.5t31 4.5l4 1l5 -2q5 -1 9.5 -3t9.5 -4h1
q5 -2 10.5 -4t10.5 -5q7 -2 13.5 -5t12.5 -5q34 -13 47 -38q5 -12 9.5 -24t7.5 -26v-2v-16.5t1 -32.5q1 -20 1 -43v-51q0 -27 -0.5 -56.5t-1.5 -60.5v-62.5t-2 -59.5t-3 -55t-3 -49q-5 -45 -9 -66q-5 -24 -13.5 -40t-19.5 -27q-7 -7 -15.5 -12t-17.5 -10q1 -4 1 -14
q0 -8 2 -18v-21v-7l-6 -6q-2 -2 -3.5 -4t-3.5 -3l-2 -2q-6 -5 -12.5 -8.5t-14.5 -5.5q-6 -2 -10 -2q-7 0 -13 2q-8 3 -15 8q-5 2 -8.5 4.5t-8.5 4.5l-6 5l-1 7q-2 10 -2 19v18v13q-5 1 -10.5 2t-11.5 4q-10 3 -19 7.5zM123 503v-64v-29.5t-1 -25.5q0 -26 -3 -38
q-3 -14 -3 -44q-1 -15 -1 -31.5v-33.5v-64q1 -15 1 -25v-17q0 -5 0.5 -10t1.5 -10q2 -6 3 -11.5t3 -10.5l3 -6v15t-1 14q0 20 0.5 26t0.5 8l1 2v2q3 9 12 15q4 2 6.5 3t4.5 3q9 3 15 3q4 1 12 0h1q8 -3 23 -13q7 -5 12 -11q1 5 1 10t1 11q2 20 2.5 43t2.5 50q1 26 1.5 54.5
t2.5 60.5q1 31 1 59.5v54.5v49.5t-1 41.5q0 25 -1 32t-1 9q-6 18 -21 23q-8 5 -17 9.5l-17 8.5q-5 2 -8 2h-5q-3 0 -5.5 0.5t-4.5 0.5v-1h-2q-5 0 -10 -5l-3.5 -3.5l-3.5 -3.5q-3 -5 -3 -10v-28v-50v-65z" />
    <glyph glyph-name="R" unicode="R" horiz-adv-x="334" 
d="M54 -5q-4 2 -7.5 4.5t-6.5 6.5q-8 6 -12 15l-3 3v565l-12 71v38q0 9 5 19q2 5 5 8.5t6 6.5q5 2 9 4.5t10 2.5q12 9 25 10q5 1 8.5 1.5t8.5 0.5h23q19 0 36.5 1t33.5 1q27 0 53 -3q30 -3 45 -15v-1q5 -5 9.5 -11.5t9.5 -13.5q3 -8 6.5 -14t5.5 -14q2 -7 4 -13.5t3 -11.5
q2 -6 2 -10.5v-7.5v-18q-1 -7 -1 -14.5t-1 -16.5t-1 -18.5v-19.5l-3 -42q-1 -26 -2.5 -53t-1.5 -56v-3l-1 -1q-2 -8 -4 -14.5t-4 -14.5q-5 -13 -8 -23q-3 -12 -9 -21q-2 -8 -7 -13t-12 -10l-14 -10t-15 -11h-1l-12 -8t-14 -9q18 -9 33 -18q21 -11 39 -24q11 -7 17 -13.5
t10 -12.5l2 -4v-4q0 -5 1 -10t1.5 -8.5t1.5 -8.5q2 -7 4 -19q2 -5 2 -8.5v-6.5v-3l-1 -4q-3 -5 -3 -13q-1 -5 -0.5 -9.5t1.5 -9.5v-8t1 -9q2 -5 2 -9v-7v-8q3 -12 3 -23q0 -10 -3 -20q-2 -5 -6 -11.5t-13 -11.5l-4 -2h-5q-8 0 -11 -1q-5 -2 -8.5 -2t-5.5 -1q-4 -1 -10 -1h-5
q-10 1 -20 10l-5 5v3l-11 4v12q-1 17 -1.5 34t-1.5 33q-1 13 -1.5 26t-1.5 26q-1 17 -2.5 21.5t-1.5 5.5l-1 1q0 3 -15 13q-8 5 -16.5 9.5t-17.5 9.5h-1q-14 5 -24 11v-168l-1 -1q-1 -10 -8 -20q-4 -4 -8 -7t-9 -6q-12 -5 -28 -5q-14 0 -24 6zM202 392q1 2 2 3.5t1 2.5v2
v268h-73v-348h6q0 1 6 4q4 2 9 5t10 7q10 6 21 15q6 10 9 20l1 1l4 10z" />
    <glyph glyph-name="S" unicode="S" horiz-adv-x="350" 
d="M118 8q-13 5 -21.5 11t-15.5 14q-11 15 -16 33q-3 12 -3 20q-2 5 -3.5 12t-3.5 15q-1 10 -1.5 18.5t-0.5 17.5q0 10 0.5 18t1.5 16q3 20 12 29q4 3 8.5 6t10.5 3q9 0 14 -5q14 0 27 -10q5 -4 9 -8l9 -9l6 -7l-1 -8q-2 -9 -3.5 -17t-1.5 -16v-2q-1 -12 0 -25q0 -7 1 -10.5
t2 -5.5l2 -4v-4v-2q7 -1 16 -1.5t20 -0.5q20 0 30 10q14 12 21 34v1q1 1 1 4v4.5t-1 6.5q-2 8 -4 17l-4 18q-2 11 -5 21t-5 21q-6 22 -6 41q0 2 -2.5 10t-11.5 21q-8 12 -17.5 24t-20.5 24q-12 12 -22.5 23t-21.5 21t-18 16.5t-11 10.5l-2 2q-9 9 -21 38q-6 14 -11.5 27.5
t-10.5 29.5q-11 32 -18 58q-8 30 -8 44v2l1 1q2 9 5.5 18.5t7.5 20.5q5 11 11.5 20.5t13.5 18.5q8 10 16.5 18t17.5 16q11 7 23.5 12.5t25.5 7.5h2h1q34 0 62 -11q16 -6 29.5 -12t25.5 -14q24 -16 39 -31q19 -17 23 -27h1q2 -5 3.5 -13t3.5 -28q1 -14 1 -28t1 -28
q1 -17 1 -35.5v-38.5v-8l-7 -6q-2 -1 -3 -2.5t-3 -2.5l-1 -2h-3q-3 -3 -12 -5q-8 -3 -19 -3q-10 0 -19 3l-10 5h-2q-3 2 -5.5 4t-4.5 3l-6 6v148q-2 2 -4.5 5.5t-10.5 11.5q-15 15 -49 21q-4 1 -10 1t-10 -2q-2 -1 -3 -1q-6 -5 -10 -10.5t-6 -10.5q-7 -15 -7 -37v-5l-4 -4
l-1.5 -3t-2.5 -3q-1 -2 -1 -4t-1 -4q0 -2 -0.5 -2.5t-0.5 -2.5q2 -5 4.5 -9.5t4.5 -11.5q4 -8 7.5 -16.5t8.5 -17.5q5 -8 8.5 -16t7.5 -16q3 -7 4.5 -9t2.5 -3l6 -5v-8q0 -2 0.5 -3t0.5 -2l4 -3q6 -5 14 -11t18 -16q9 -9 18.5 -20.5t18.5 -23.5q9 -13 18.5 -27t18.5 -29
q17 -31 30 -65q7 -15 11 -31t7 -31q6 -30 6 -55v-28t-2 -27v-1v-2q-10 -28 -49 -55q-34 -21 -106 -32l-1 1h-1q-18 0 -32.5 2t-25.5 7z" />
    <glyph glyph-name="T" unicode="T" horiz-adv-x="283" 
d="M108 518q-2 32 -6 66.5t-6 70.5l-90 1h-2q-5 3 -11 5.5t-11 4.5q-12 5 -19 11q-13 7 -14 19q-4 12 3 24q4 8 9 13q7 5 17 9h3l323 11l4 -4q2 0 8 -4q5 -3 8 -6l5 -5h1v-2q2 -5 5 -6q4 -5 6.5 -11.5t2.5 -15.5q0 -7 -2 -13.5t-4 -12.5q-5 -7 -11.5 -12t-14.5 -7
q-3 -1 -8.5 -1h-20.5h-44h-41q3 -34 5.5 -65.5t4.5 -60.5q1 -14 2 -26.5t2 -26.5q3 -30 3 -51l1 -6q1 -9 1.5 -16.5t0.5 -14.5l1.5 -12t0.5 -6q0 -14 3 -29q11 -18 1 -42v-1l-6 -21l5 -233l-2 -6q-5 -5 -7.5 -9.5t-7.5 -7.5q-6 -6 -16 -11q-10 -7 -19 -8q-2 -1 -6 -1
q-8 0 -18 4q-3 2 -7 4t-7 4t-7 5l-8 6l-4 5l6 251v76v18q-1 8 -2 17.5t-2 20.5q-2 11 -2 24t-2 27q-1 14 -2.5 28.5t-1.5 28.5z" />
    <glyph glyph-name="U" unicode="U" horiz-adv-x="347" 
d="M329 719l15 -56l-12 -25v-212l-12 -24l-1 -188l-12 -141l-11 -11v-22l-4 -3q-6 -6 -12 -11t-14 -10q-6 -2 -10.5 -5.5t-8.5 -6.5l-4 -6h-131q-20 0 -38 8q-7 4 -13.5 8.5t-11.5 9.5q-6 6 -11 12.5t-9 14.5l-1 3v656q0 11 12 21l6 4t7 4l2 1l22 10l16 -6l2 -2q1 -1 3 -1
q6 -6 7 -14q6 -9 7 -22q0 -7 1 -13t2 -13v-1q1 -8 1.5 -17t1.5 -18v-1v-274l16 -14l-16 -31v-5l11 -219l17 -17q1 -2 4.5 -3.5t14.5 -2.5q9 -1 17 -1h16q5 3 9 6t6 8l1 1q1 2 5 6v121l11 320h11v170l6 5q2 2 4 3.5t5 3.5l2 1q2 2 4.5 3t5.5 3q6 4 15 8l4 2h5q9 0 15 -3
q2 -1 3.5 -1t3.5 -2h1z" />
    <glyph glyph-name="V" unicode="V" horiz-adv-x="331" 
d="M10 667q0 4 -0.5 9t-0.5 10l-10 21l3 6q3 10 9 14q4 6 10 9.5t14 5.5l1 1h1q10 2 22 4q1 0 2 0.5t3 0.5q17 0 31 -17v-1q7 -9 9 -24q1 -5 1 -10.5v-10.5q-1 -5 -1.5 -10.5t-0.5 -11.5l37 -181v-2q0 -5 -0.5 -8t0.5 -5v-2q0 -2 0.5 -5t0.5 -5q0 -3 0.5 -6t-0.5 -6l1 -2
q1 -3 2 -6.5t2 -7.5q2 -5 4 -9t4 -9l1 -2l12 -71q1 -4 1 -7.5t1 -8.5q0 -4 0.5 -7.5t0.5 -6.5q2 -8 2 -10q0 -1 4 -20q2 -5 2.5 -11t2.5 -11l23 167q4 39 6.5 74t5.5 65q1 14 2 26.5t3 26.5q1 23 3 46q2 10 2.5 19t1.5 15q1 14 3 19t2.5 10t2.5 10q6 11 19 14t24 4
q18 2 29 -6q11 -5 14 -15q6 -11 6 -23v-2l-15 -146l-7 -62l-4 -14v-57l-4 -13l-9 -36l3 -29l-2 -4q-1 -2 -1 -7q-2 -6 -2 -5v-2v-4t-1 -7t-1 -9.5t-1 -9.5l-2 -27l-10 -44q-3 -20 -5.5 -37t-5.5 -33q-3 -14 -5.5 -26.5t-5.5 -26.5t-5 -23.5t-5 -15.5q-5 -14 -12.5 -24
t-17.5 -18q-19 -19 -37 -22q-3 0 -4.5 -0.5t-4.5 -0.5q-10 0 -18 5q-3 4 -5.5 7t-4.5 5v1q-3 5 -5.5 8.5t-4.5 8.5l-26 135q-14 64 -24 122.5t-20 109.5q-5 20 -8.5 42t-7.5 42q-3 22 -7 40t-7 34q-3 17 -5.5 30.5t-4.5 23.5q-3 18 -3 20q-2 6 -2 13q0 5 -0.5 9t-0.5 10z
" />
    <glyph glyph-name="W" unicode="W" horiz-adv-x="413" 
d="M73 20q-3 5 -6 9t-5 9l-1 3v2q-4 28 -6 55q-2 11 -3 20.5t-2 19.5q-2 14 -2 17.5v5.5v2q0 1 -0.5 3t-0.5 5q-1 5 -1.5 9.5t-2.5 8.5q-2 8 -2.5 15t-2.5 16v1l-5 257l-11 165l-2 12l-5 9q-1 3 -1.5 6.5t-1.5 6.5q-1 5 -1 13q0 11 4 16v1q3 4 4.5 7.5t3.5 5.5q9 10 32 10
q28 0 37 -15q4 -5 7 -10t5 -10q1 -3 2 -7.5t2 -10.5q1 -5 1.5 -10.5t2.5 -10.5q1 -7 2 -14.5t3 -15.5v-1q0 -18 1.5 -35t2.5 -31q2 -14 2.5 -27t1.5 -26q0 -13 0.5 -22t0.5 -14v-18q0 -7 0.5 -14.5t0.5 -17.5v-37q3 10 3 19q2 7 2.5 12.5t1.5 11.5q0 3 0.5 4.5t0.5 3.5v2v12
q0 10 3 22q0 5 1 11t2 11q2 14 4 19q0 4 2 8q1 5 4 8.5t7 6.5q6 4 15 7q5 1 9.5 1.5t12.5 0.5q15 0 26 -6q9 -5 17 -13q7 -8 8 -17l1 -1v-2q1 -16 2 -29.5t2 -26.5q0 -11 1 -21t1 -19q1 -12 3 -15v-1v-3q1 0 2 -4.5t6 -16.5q2 -5 4 -11.5t5 -13.5l14 281l1 24q1 7 1 13.5
t1 13.5q1 6 1 11v11q1 6 2 11l2 10h1q3 7 6 13t8 9q7 7 20 7q8 0 26 -5v-1q18 -7 24 -23q3 -7 5 -14t2 -15q1 -8 0.5 -15.5t-1.5 -15.5l7 -22l-9 -22v-36v-28l-8 -27l-2 -172l-4 -19l8 -20l-12 -21v-150l-10 -10l2 -87l-2 -3q-6 -12 -16 -19q-7 -7 -16 -12q-12 -5 -25 -5
q-8 -2 -14.5 -0.5t-11.5 3.5t-9 5t-7 6l-6 8t-5 9v2v2q-5 24 -6 42v1q-2 9 -2.5 17t-1.5 16q-1 9 -1 13v5t-0.5 4t-2.5 13q-5 15 -9 36q-2 10 -4 19l-4 18q-3 9 -4.5 15l-2.5 10q-2 4 -3 8t-3 9l-6 -58v-1q-1 -2 -1.5 -5t-1.5 -5v-1q-1 -2 -1 -4.5v-4.5v-10q0 -4 -1.5 -8
t-3.5 -12q-2 -5 -3.5 -10.5t-3.5 -12.5q-1 -7 -3.5 -14.5t-5.5 -15.5q0 -14 -3 -27q0 -5 -1 -10.5t-1 -10.5q0 -6 -0.5 -9.5t-1.5 -7.5q-2 -18 -21 -28l-13.5 -4.5t-17.5 -4.5q-3 -1 -7 -1q-12 0 -19 7q-7 3 -13 11v1z" />
    <glyph glyph-name="X" unicode="X" horiz-adv-x="371" 
d="M127 2q-3 -18 -23 -21q-5 -1 -12 -1h-17q-20 0 -31 8q-4 4 -8 8.5t-7 9.5q-3 6 -4 12t-3 13v1q0 5 1 9t3 8q2 2 4 7l1 1l5 6q2 6 3.5 12t3.5 12v1q2 5 4 11l4 12t3.5 11t4.5 9q0 4 3 24q2 11 4 22.5t4 23.5t4 23l4 22q2 15 3 19q1 3 1 4v4l1 3q2 5 4 8t4 7q6 10 15 21
q1 2 2 6.5t4 10.5q4 15 12 33q4 8 7 16.5t8 18.5q-2 4 -4 9t-5 12l-8 22t-8 23q-5 14 -9.5 29t-9.5 32l-1 1q-1 2 -1 4t-1 4q-2 4 -3 12q-1 1 -2 3.5l-3 7.5q-3 5 -6 13t-8 19q-4 11 -7.5 21.5l-7.5 22.5q-5 12 -9.5 25.5t-9.5 27.5l-5 7l-1 1q-1 4 -4 8l-3 9q-7 9 -6 19
q2 11 12 16q1 1 3 2t7 6l5 5h19q5 0 10.5 -0.5t10.5 -0.5q8 -1 19 -5q4 -2 8 -3.5t7 -3.5q8 -3 11.5 -9.5t5.5 -10.5q2 -6 5 -13t5 -15t4 -14.5t4 -13.5l5 -10l2 -2l9 -20q1 -3 3 -11q3 -9 3 -16q0 -4 0.5 -7.5t1.5 -8.5q0 -2 1 -6.5t6 -13.5l6 -9l80 180q3 22 26 22
q11 0 35 -11l2 -1l2 -2q6 -7 11 -14q4 -8 7 -11v-1q2 -3 4 -6.5t4 -7.5l7 -11l-41 -40q0 -4 -4 -14l-16 -50l-1.5 -4.5t-0.5 -3.5l-1 -2v-7l-5 -5q-1 -1 -2.5 -3t-3.5 -7q-2 -4 -3 -8t-3 -9v-1q-2 -5 -3.5 -11t-3.5 -12l-4 -16l-4 -16v-1q-2 -6 -3.5 -12t-3.5 -11
q-3 -12 -9 -18q0 -5 -4 -15q-2 -5 -4.5 -10t-4.5 -10q-2 -4 -3.5 -7.5t-3.5 -8.5l1 -1q1 -4 4 -8q4 -10 4 -17v-3q0 -3 3 -12q2 -13 9 -32l6 -16l6 -16q2 -7 3.5 -9.5t2.5 -3.5l4 -3l1 -5q5 -17 9.5 -32t7.5 -29q4 -12 7 -23l6 -22q2 -11 3.5 -17t2.5 -9l5 -19q2 -4 4 -14
q3 -8 3 -15q2 -8 3 -15.5t3 -14.5v-1q1 -6 1.5 -12t2.5 -11q1 -7 1.5 -11.5t0.5 -7.5v-10l-21 -12l-12 -8q-6 -4 -8 -7l-5 -5h-7q-7 0 -16 3q-4 2 -7 2.5t-6 2.5q-5 2 -8 4t-8 4l-6 4l-1 7q-2 8 -3 15.5t-3 15.5v1q-1 7 -2 12.5t-1 11.5q-3 9 -3 16q-2 6 -3.5 13t-3.5 14v1
q-1 6 -1.5 12.5t-2.5 14.5q-1 6 -1 12.5v13.5q-3 5 -5.5 12t-5.5 15l-6 20t-5 20l-6 18l-8 -26l-12 -83l-12 -47q-2 -10 -4.5 -19t-4.5 -18q-2 -8 -3.5 -14.5t-3.5 -13.5t-4 -11.5t-4 -9.5z" />
    <glyph glyph-name="Y" unicode="Y" 
d="M284 745q18 -8 22 -27q2 -6 2.5 -12.5t0.5 -14.5q-2 -7 -3 -14t-3 -15v-1l-52 -155v-22v-8.5t-2 -9.5q-2 -15 -5 -18q0 -1 -5 -15q-4 -14 -11 -31q-2 -11 -5.5 -21t-5.5 -24q-2 -18 -3.5 -35t-3.5 -32q0 -12 -1 -24.5t-1 -25.5q-2 -12 -2 -16v-6v-4l-1 -2l1 -1v-14v-16
l6 -24l-6 -13l-4 -112l-1 -1q-2 -5 -4.5 -9t-6.5 -7q-4 -6 -15 -11q-5 -2 -11.5 -2h-13.5q-1 0 -1.5 -1t-1.5 -1q-9 0 -15.5 2.5t-11.5 5.5q-11 11 -12 19q-3 6 -5 12.5t0 14.5l1 48l5 155l1 29l-1 39q-6 5 -13 21t-15 44q-5 12 -10 26t-9 30q-5 15 -9.5 31.5t-9.5 33.5
q-9 35 -19 75.5t-21 86.5h-10l-4 12q0 3 -0.5 6.5t-0.5 6.5q0 7 1 10q0 6 5 16q5 8 11.5 14t17.5 9q23 6 43 -2h1h2q4 -3 8.5 -6t8.5 -7q6 -7 8 -15h2q0 -4 1 -7.5t1 -6.5l60 -187l1 6l12 25q5 20 8.5 38t8.5 35q2 14 6 28t7 27q4 14 6.5 23.5t5.5 14.5q6 22 24 32
q18 11 46 0h1z" />
    <glyph glyph-name="Z" unicode="Z" horiz-adv-x="350" 
d="M33 24q-4 5 -8 10.5t-8 11.5l-5 7l15 30l22 89l46 160l69 207l3 3q2 3 7 9t12 19q7 11 13 22.5t13 23.5q5 8 10.5 17.5t10.5 19.5l-89 10h-67q-11 0 -20 6q-9 5 -13 12q-8 9 -9 18q-3 11 3 20q2 8 4.5 12.5t5.5 7.5q9 8 18 10q9 3 22 3q26 0 49.5 -0.5t43.5 -1.5h1h18.5
t17.5 -1q9 0 18 -0.5t17 -1.5q15 -2 27 -3q7 -1 11.5 -2t7.5 -2l1 -1q8 -4 15 -7t14 -5q25 -6 25 -37q0 -2 -1 -6t-5 -13q-2 -6 -5.5 -13t-7.5 -16q-5 -8 -9.5 -16.5t-9.5 -19.5q-5 -10 -10.5 -20t-10.5 -21q-11 -24 -25.5 -51t-30.5 -57l-33 -101l-74 -251h143l5 -3
q5 -4 9.5 -8t8.5 -8q6 -8 10 -14q8 -12 1 -24q-2 -4 -4.5 -8t-7.5 -8q-3 -2 -7 -4.5t-8 -4.5q-7 -4 -19 -7l-2 -1h-116h-15t-14 -2q-6 -1 -11.5 -1.5t-9.5 -1.5q-3 -1 -6 -1q-1 0 -1 -1l-5 -5h-6q-13 0 -26 8q-5 3 -9 6.5t-9 6.5z" />
    <glyph glyph-name="a" unicode="a" horiz-adv-x="309" 
d="M35 2q-2 2 -4.5 4t-5.5 5l-3 5v6q2 29 2.5 56t2.5 51q1 11 1.5 21.5t0.5 21.5q2 11 2.5 21t1.5 20v17t1 15q2 8 2.5 14t1.5 11q2 7 4 16t4 20l4 24t4 25q2 14 3 25t3 22t2.5 18.5t2.5 12.5q2 12 3 25q1 7 2 15t1 15q1 9 1.5 16.5t2.5 15.5q1 8 1 13v10q1 7 1.5 15.5
t2.5 22.5q3 14 5.5 28t4.5 28q3 15 5.5 28.5t5.5 26.5q3 17 5.5 23t3.5 10q4 9 12 15q4 3 12 7q5 3 9.5 4t9.5 1h6l5 -4q5 -4 9.5 -8t9.5 -9h1q5 -5 8 -9t7 -7q10 -10 13 -19l1 -1v-1q2 -4 2.5 -9.5t2.5 -13.5t2.5 -16.5t2.5 -16.5q1 -9 2 -18.5t3 -20.5q8 -35 14.5 -67.5
t12.5 -61.5q6 -26 9 -49q2 -12 4.5 -22.5t4.5 -20.5q2 -9 3.5 -17t3.5 -14q3 -11 3.5 -13.5t0.5 -4.5v-8q1 -3 1 -7.5v-9.5v-17v-13v-2q0 -5 1 -9q1 -5 1.5 -11t2.5 -14q2 -7 2.5 -15.5t2.5 -16.5q2 -10 2.5 -19t2.5 -20q4 -22 7 -46t8 -52v-4l-1 -4q-2 -7 -4 -13l-4 -12v-1
q-4 -5 -6.5 -9t-5.5 -8q-8 -12 -21 -18q-14 -5 -26 0q-5 2 -7.5 3.5t-6.5 3.5q-10 8 -15 16l-1 4v3q-1 8 -1 14.5v13.5v24v13.5t1 12.5v9.5t-1 17.5q-2 9 -3 19t-3 18q-2 10 -3 18t-3 16l-79 -5l-7 -174l-3 -5q-2 -3 -4.5 -6t-6.5 -5l-1 -1h-1q-3 -3 -11 -6q-5 -2 -9 -4
t-8 -3h-1q-10 -2 -15 -2q-4 0 -5 1q-5 1 -9 1.5t-7 2.5v1zM194 288q-2 12 -4 23t-4 20q-3 14 -5 25l-4 22q-3 15 -4 20.5t-1 7.5q-1 2 -1 5q-1 2 -1 6t-1 11l-6 21l-23 -159z" />
    <glyph glyph-name="b" unicode="b" horiz-adv-x="351" 
d="M53 6q-10 2 -14 6q-11 3 -15 15q-2 8 1 16q1 3 1.5 5.5t2.5 5.5v208q-2 35 -3 66t-3 60q0 11 -0.5 23t-1.5 25q0 12 -0.5 22t-1.5 21q-1 10 -1 18v15q0 6 -0.5 11t-0.5 8v3l1 2q2 4 3.5 12t1.5 23q2 14 2.5 26.5t1.5 24.5q1 17 1 33t1 33v8l11 10q0 3 2 9q1 3 2 6.5
t3 6.5q5 5 13 9q9 6 18 6q4 0 7.5 -0.5t6.5 -0.5h1l2 -1q4 -2 7 -2q9 1 17 2t16 3l30 3q8 2 14.5 2h11.5q7 0 20 -5t24 -13q7 -4 14 -8.5t14 -9.5q17 -12 29 -24v-1q17 -15 24 -46q4 -15 6 -30t2 -32t-0.5 -33t-2.5 -33q-3 -16 -6 -30t-8 -25q-6 -23 -21 -46
q-7 -11 -15 -20.5t-16 -17.5q-4 -4 -8 -7.5t-9 -7.5l6 -3q2 -1 4.5 -2t6.5 -3q8 -3 19 -12q5 -4 9 -7.5t9 -8.5q8 -8 11 -16q20 -12 29 -42q5 -14 7 -34.5t2 -47.5q0 -15 -1.5 -29.5t-5.5 -28.5q-4 -13 -8 -24.5t-10 -21.5q-11 -20 -22 -31l-8.5 -8.5t-7.5 -5.5
q-13 -10 -25 -11q-5 -1 -11 -1.5t-14 -0.5q-5 -2 -11.5 -4t-16.5 -4q-9 -2 -19 -3.5t-20 -3.5q-10 -1 -19.5 -2t-17.5 -3q-12 -1 -16 -1.5t-6 -0.5h-13q-4 0 -8 0.5t-9 0.5q-5 1 -9.5 2t-9.5 3zM180 434q9 8 16 17t13 20q8 23 11.5 44.5t5.5 40.5q1 18 -1 33.5t-5 26.5
q-8 23 -15 30q-9 11 -21 16h-2q-5 3 -14 3h-11t-12 -1q-4 -1 -8 -1t-8 -1l-10 -109v-155q5 2 11.5 5t12.5 6q19 11 37 25zM204 88q4 9 8 16.5t8 16.5q7 16 15 41q7 21 7 43q-5 23 -12 38q-7 17 -14 24q-9 11 -17 16q-4 2 -7.5 5t-7.5 5q-5 2 -18 3h-13.5t-13.5 -1
q-5 0 -10 -0.5t-10 -0.5v-206h85z" />
    <glyph glyph-name="c" unicode="c" 
d="M16 606q-2 15 1 28q0 10 3 24q3 15 9 25q5 11 22 26l16 12t19 12l20 10t21 9q22 9 41 9q9 2 19 3t21 2h20.5t18.5 -2q10 -1 18 -3t15 -4q5 -2 12.5 -6t9.5 -13q12 -30 -12 -45q-19 -11 -39 -11h-16q-5 0 -11 -0.5t-13 -1.5q-6 -1 -13 -1.5t-14 -2.5q-6 -1 -10.5 -2
t-8.5 -3l-3 -2h-4q-8 0 -13 -4q-5 -3 -8.5 -5.5t-7.5 -7.5q-3 -3 -6 -7t-5 -8v-499q2 -5 2.5 -9.5t2.5 -9.5h1q1 -5 1.5 -10t2.5 -10q0 -2 0.5 -4t0.5 -4q5 0 9.5 1t9.5 3h1q8 2 18 4t21 6l2 1h71q11 0 19 -1t15 -3q17 -4 28 -30l2 -3v-4q0 -14 -10 -25q-5 -6 -15 -13l-1 -1
q-6 -5 -20 -10l-2 -1h-3q-17 -2 -34.5 -3t-34.5 -3v-1l-28 -2l-28 -2q-15 -1 -27 -1.5t-21 -0.5h-1l-2 1q-28 6 -42 23q-15 15 -21 32q-8 19 -8 41l-12 81v284l12 12v114h-10z" />
    <glyph glyph-name="d" unicode="d" horiz-adv-x="331" 
d="M31 15q-7 8 -12 22l-1 3v256l12 147v290l6 5q5 6 10.5 10.5t11.5 6.5q2 0 4 0.5t3 0.5l27 13l54 -27q11 -8 23 -14.5t21 -13.5q10 -6 19.5 -12t18.5 -14q12 -7 20.5 -14t15.5 -15h2q13 -15 23.5 -39.5t16.5 -61.5q5 -32 11 -72t10 -88q2 -23 2.5 -43.5t-1.5 -42.5
q-2 -17 -4 -33.5t-4 -31.5q-6 -15 -10.5 -30.5t-6.5 -29.5v-14l-95 -142l-15 -12q-7 -7 -23 -11q-15 -6 -32 -10q-7 -2 -14.5 -2.5t-18.5 -2.5q-8 -1 -15 -1h-10q-18 0 -30 6q-5 2 -10 7.5t-9 9.5zM222 441v1q0 10 -1 21.5t-3 24.5t-4 25t-4 23q-4 14 -8 25.5t-9 20.5
q-3 11 -6.5 18.5t-5.5 12.5l-1 1q-4 5 -9 11.5t-11 9.5q-11 13 -25 22q-1 2 -2.5 2t-2.5 2l-9 -232v-135l-14 -112l14 -33v-67h17l73 126q1 4 1 10t2 20q2 13 3.5 29t3.5 36q2 19 3 38t1 39v32t-2 28z" />
    <glyph glyph-name="e" unicode="e" horiz-adv-x="321" 
d="M27 449h-19l19 53q0 19 0.5 36.5t0.5 33.5q1 14 1.5 28t0.5 28q2 14 4 23t4 15q1 5 2 9.5t3 9.5q4 7 11 14q3 3 6.5 5.5t6.5 4.5q4 4 9 6.5t12 5.5q10 5 28 10l28 8l10.5 3.5t8.5 3.5l3 2h35h21.5t21.5 -2q11 0 21 -0.5t19 -1.5l12 -3t14 -7q3 -2 9 -8q5 -10 5 -18
q0 -9 -5 -17q-3 -5 -7 -8q-5 -6 -13 -9q-4 -2 -7.5 -2t-8.5 -1t-18 -1h-43l-23 -11h-5q-5 0 -15 -2q-5 -2 -15 -4q-2 -1 -2.5 -1.5t-2.5 -1.5l-1 -1l-2 -1q-4 -3 -7.5 -5t-5.5 -4q-2 -3 -5 -5t-5 -5q-1 -1 -1.5 -2t-2.5 -3v-208l29 5h2q5 0 11 3q4 1 7 2t7 1q10 2 14 1
q8 -2 14 -6q2 -1 4.5 -1t4.5 -1q5 -1 8.5 -2t7.5 -3q5 -2 9.5 -4t7.5 -6q8 -5 10.5 -11t2.5 -11q0 -8 -3.5 -14.5t-7.5 -10.5q-9 -8 -18 -10q-9 -3 -19 -3l-71 -12h-1l-2 -1q-2 -2 -4.5 -4t-4.5 -5h-1q-2 -1 -3.5 -2t-3.5 -3l-10 -203v-23v-5v-1h96q3 1 5.5 2t4.5 1v1
q3 1 5.5 2t4.5 2q5 1 8.5 1.5t7.5 0.5q13 0 25 -3q14 -6 26 -28l1 -4v-4q0 -16 -10 -26q-3 -4 -6.5 -7t-7.5 -7h-2q-9 -6 -20 -10h-2h-2q-18 -3 -35.5 -4t-32.5 -1q-10 -1 -19 -1.5t-19 -0.5q-5 0 -9 0.5t-9 0.5q-27 0 -42 6q-15 0 -28 7t-19 16q-4 5 -7 10.5t-5 11.5v3
l-14 170h13v224z" />
    <glyph glyph-name="f" unicode="f" 
d="M38 108l-11 405l-1 11q2 16 3.5 31t3.5 30q2 13 4 25l4 24t4 21t4 17q1 16 13 30q10 12 24 21q6 5 12 7.5t13 4.5q15 6 22 6h4h6t12 1q10 2 20.5 2.5t22.5 2.5q12 1 22.5 2t20.5 2q13 1 17.5 1.5t6.5 0.5h9l5 -7q-1 -1 0 -1h4q3 -2 7 -2.5t7 -2.5q5 -2 8.5 -3t7.5 -3
q11 -5 13.5 -11t2.5 -10q0 -11 -4 -19q-3 -7 -7 -11q-5 -5 -9.5 -6.5t-7.5 -1.5q-20 -2 -38 -4t-35 -4q-7 -1 -13.5 -2t-13.5 -1q-7 -2 -13 -2.5t-11 -1.5l-10 -2t-9 -1q-1 -1 -2 -1h-1l-4 -3h-7l-1 -1q-1 -1 -3 -5q-1 -5 -1 -14q-1 -5 -1 -7v-3q0 -2 -0.5 -6.5l-1.5 -13.5
q-2 -8 -2.5 -15.5t-1.5 -15.5l-1 -1q-1 -8 -1.5 -18t-2.5 -21v-125l95 10l2 -1q6 0 10.5 -2.5t9.5 -5.5q8 -6 11 -14q2 -5 4 -10.5t2 -13.5q6 -15 -2 -27q-3 -4 -5 -7t-5 -6v-1l-2 -1q-8 -6 -19 -11l-3 -1h-98v-49l12 -113v-100q0 -9 -8 -20q-2 -5 -10 -13q-4 -3 -7.5 -6.5
t-7.5 -5.5q-11 -6 -18 -6q-16 0 -26 9q-3 4 -6.5 7.5t-6.5 7.5l-1 1q-2 5 -4.5 10t-4.5 10l-1 3v57z" />
    <glyph glyph-name="g" unicode="g" horiz-adv-x="334" 
d="M138 1h-14.5t-11.5 1q-32 2 -50 23q-9 10 -15.5 19t-11.5 19l-1 1q-5 12 -9.5 25.5t-6.5 29.5l-1 1l8 375q2 21 3 41.5t3 40.5q2 17 4.5 34t6.5 34q5 19 10 34t13 25q8 12 20 20.5t27 14.5q14 5 28 7.5t28 3.5q30 1 52 -3q7 -2 19.5 -7t15.5 -19v-2q1 -5 -2 -14t-17 -17
q-8 -3 -16 -7t-18 -7q-9 -2 -18.5 -4t-19.5 -5q-16 -3 -26 -8h-1q-4 -2 -5.5 -5.5t-2.5 -6.5q-2 -10 -3.5 -19t-3.5 -20q-1 -11 -1.5 -24t0.5 -27v-1q-1 -58 -1.5 -108.5t-2.5 -95.5v-76v-36t-1 -33v-52v-24q0 -17 6 -30q3 -5 6.5 -9t10.5 -6q2 -2 10 -2h7q8 1 15 2t15 3
t15 4l14 4q4 2 6 2v22q-1 7 -1 14v15q-1 9 -1 17.5t-1 17.5q-2 16 -2.5 35t-2.5 39q-11 0 -20.5 2t-17.5 5q-20 7 -30 21q-9 10 -12 27q-1 6 0 12.5t7 12.5t25 9q8 2 16 2.5t18 1.5l16 2t18 2h24h15t12 -1q10 -4 16 -13t10 -18v-2q0 -3 1 -9t3 -22q0 -10 0.5 -22t1.5 -28
v-29t-1 -30q-1 -16 -1 -30.5t-2 -28.5q-1 -15 -2 -27t-3 -22q-2 -13 -4.5 -20t-4.5 -12l-1 -1q-9 -11 -33 -20q-10 -4 -21 -6.5t-25 -5.5q-13 -2 -26.5 -3t-27.5 -2q-7 -1 -13.5 -1h-12.5z" />
    <glyph glyph-name="h" unicode="h" horiz-adv-x="325" 
d="M97 27q-11 -17 -32 -20q-8 -6 -18 -6q-3 0 -5 0.5t-5 1.5q-8 3 -14 11l-3 4v315l11 57v90q2 32 3 60.5t3 54.5q0 9 0.5 18.5t0.5 18.5l1 6q1 10 1 20t1 18q1 9 1 16v13v13q0 17 18 22q2 0 4.5 1t6.5 2h1l27 3l5 -6l4 -4q1 -1 2 -1l3 -1h1l20 5l-13 -260v-120h93v366l7 5
q2 2 4 3.5t5 3.5l2 1q3 2 6 2.5t6 2.5q5 1 9.5 1.5t10.5 0.5q7 0 12 -1.5t10 -3.5q8 -4 15 -11q3 -4 6 -7t5 -7l3 -4l-11 -188v-40l11 -23l-1 -140l-11 -277l-2 -3q-4 -10 -12 -16q-2 -3 -6 -6t-7 -5q-11 -6 -23 -6q-16 0 -26 9q-2 2 -5 4.5t-5 4.5l-3 3l-14 92l13 12
l-11 136h-93q2 -25 2.5 -47.5t2.5 -44.5q0 -10 0.5 -20t0.5 -21t-0.5 -20t-0.5 -17q0 -9 -0.5 -16t-1.5 -12t-1.5 -9t-1.5 -7q-2 -6 -4.5 -12.5t-7.5 -14.5z" />
    <glyph glyph-name="i" unicode="i" horiz-adv-x="140" 
d="M134 25q0 -9 -6 -17.5t-22 -10.5q-5 -1 -10.5 -1h-10.5q-4 -2 -7.5 -2.5t-6.5 -0.5q-7 0 -10 1q-8 2 -14 6h-1l-1 2q-7 4 -12 16l-4 6l10 21l-8 8v376v13v11t1 14t1 16.5t1 17.5q0 9 0.5 18.5t0.5 19.5q2 18 3 38.5t3 43.5h-10v103l4 5q8 8 18 12q2 2 4.5 2t4.5 2
q5 1 9.5 2t9.5 1h7l18 -17l16 -15v-459l12 -174v-58z" />
    <glyph glyph-name="j" unicode="j" horiz-adv-x="295" 
d="M5 50q-6 8 -10.5 14.5t-6.5 14.5q-3 7 -4 14.5t1 12.5v1q5 17 14.5 21.5t15.5 4.5h1q6 -1 12.5 -2.5t10.5 -5.5q5 -1 8 -3t8 -5q7 -7 16 -13h1q5 -2 9 -5.5t8 -6.5q14 -1 28 -1.5t25 -0.5t21.5 0.5t19.5 0.5h5q0 6 0.5 10.5t1.5 9.5l2 28l1 19l-1 19l3 88l-8 303l1 13
l4 89q-1 5 -1 14q0 4 -0.5 7.5t-0.5 5.5v9.5t2 9.5q0 9 5 17q1 3 3 5l4 4q4 5 8 6t7 2q5 1 11.5 0.5t12.5 -1.5q11 -2 17 -9q5 -3 11 -10l4 -6t5 -5l1 -2q6 -4 7 -13l2 -2l2 -68v-17l-4 -14l1 -44l-1 -21l1 -64l5 -5l4 -23l-9 -15l1 -32v-6q2 -8 2 -13v-1v-1v-3
q0 -10 -5 -20q0 -1 -1 -2l4 -23l6 -27l-4 -152v-23t-1 -22q-1 -9 -1.5 -18t-1.5 -17q-1 -11 -2 -17.5t-5 -10.5q-2 -5 -5.5 -7.5t-8.5 -6.5q-4 -5 -8 -7.5t-9 -6.5q-5 -2 -9 -4t-9 -5t-9 -4t-7 -2q-2 0 -5 -0.5t-11 -0.5h-11q-10 1 -19.5 1t-20.5 1t-23 1.5t-23 1.5
q-12 2 -22 3.5t-18 3.5q-8 1 -17 4.5t-16 11.5q-15 9 -25 23z" />
    <glyph glyph-name="k" unicode="k" horiz-adv-x="330" 
d="M36 0l-22 21l12 199v143l10 9l-10 140v204q0 17 21 29q16 9 31 9q10 0 18 -7q6 -5 10 -11q4 -4 6 -10l14 -15v-223l14 32l23 45l80 147q4 8 7 12q5 8 11 12q8 7 19 7q8 0 19 -6q4 -2 7.5 -5.5l7.5 -7.5t10 -12q5 -8 6 -15q8 -17 -6 -32q-3 -3 -9 -7l-75 -150v-22
l-77 -166l7 -14l102 -157l21 -51q6 -4 9 -7q4 -3 7 -6.5t6 -7.5q2 -5 5.5 -9t6.5 -9l6 -9l-5 -9q-2 -4 -4.5 -7.5t-5.5 -7.5h-1q-3 -4 -12 -11q-3 -4 -7 -7t-9 -6l-4 -2h-5q-13 0 -26 6q-10 4 -21 13q-6 4 -11 9l-10 10l-2 2l-68 137l-26 34v-175l-3 -10l-1 -2q0 -5 -3 -6
q-1 -7 -9 -13l-5 -5h-59z" />
    <glyph glyph-name="l" unicode="l" horiz-adv-x="286" 
d="M332 70q2 -6 2.5 -10.5t0.5 -9.5q0 -8 -7 -15q-2 -2 -5 -3.5t-6 -3.5q-1 0 -2 -1q-8 -6 -26 -11q-8 -1 -13 -1.5t-10 -0.5h-4q-2 0 -5 -1t-8 -2l-2 -1q-15 -3 -38 -6q-11 -2 -22.5 -4.5t-23.5 -4.5q-7 0 -13 -0.5t-11 -0.5q-4 0 -7.5 0.5t-5.5 0.5q-8 0 -14.5 2t-14.5 5
q-7 3 -13.5 6t-12.5 7l-10 6t-9 5q-12 7 -15 15q-3 4 -3.5 9.5t-0.5 16.5q-1 8 -1 16.5v18.5v57q0 3 0.5 7.5t0.5 8.5v13t1 14t1.5 13.5t1.5 12.5v13v31v57v80v1l5 20q0 3 -2 7l-2 6t-1 6v2l-2 3l4 38q1 29 2 55t1 49q1 11 1.5 20.5t0.5 18.5v19.5t1 16.5t1.5 15t0.5 12
q1 8 1.5 11t1.5 5q2 4 3.5 8t5.5 7q2 2 5 4.5t5 4.5q9 5 17 8l8 2l8 -6q5 -4 9 -8t9 -7l1 -1q3 -4 6 -7.5t6 -6.5q4 -4 7 -9t3 -11v-13q-2 -8 -2 -14l-2 -17l2 -143l3 -22l-8 -20q-2 -45 -2.5 -83.5t-2.5 -71.5q0 -16 -0.5 -31t-1.5 -29v-27.5t-1 -23.5t-1 -20v-17v-13
q0 -2 1 -4.5t2 -5.5q2 -5 2 -9v-8v-6q0 -7 -1 -11q0 -3 -1 -5q-2 -7 0 -13v-2v-3q6 0 10 1q12 2 25 4.5t27 4.5l28 4t27 4q28 4 41 0q3 -1 5.5 -1h3.5q5 -1 11 -3q5 -1 8.5 -3.5t6.5 -5.5q2 -3 4 -6.5t4 -8.5h1z" />
    <glyph glyph-name="m" unicode="m" horiz-adv-x="380" 
d="M27 435l-11 272l7 5q2 0 3 1t3 2q13 8 25 8h34l49 -143l20 -97l23 -65v-3l23 241l13 74l7 4q5 1 11 5l2 1q2 0 4.5 1t5.5 2q4 2 7.5 2.5t7.5 0.5q10 0 22 -5q4 -2 7.5 -5t7.5 -6q2 -3 5 -6t5 -6l4 -4v-165l2.5 -12.5t3.5 -19.5q2 -11 3.5 -24.5t3.5 -27.5q4 -33 9 -72
l32 -327v-27l-1 -2q-4 -12 -11 -20q-6 -9 -12 -15q-11 -9 -25 -9q-11 0 -19 7q-2 2 -5 4.5t-5 6.5q-5 6 -8 13l-1 4v57l-22 196l-1 10q0 -2 -1 -2q-1 -11 -3.5 -22t-5.5 -21v-9q-1 -5 -1 -9.5t-1 -11.5t-1.5 -14t-0.5 -15l-3 -30q-2 -19 -3 -39.5t-3 -43.5v-48l-2 -4
q-5 -8 -10 -13q-4 -3 -7.5 -6t-7.5 -5q-8 -5 -21 -5q-12 0 -19 3q-8 3 -12 7q-3 5 -4 8.5t-2 5.5q-2 7 -3 14t-3 14v1q-1 5 -1.5 11t-2.5 11q-1 5 -1 9.5v8.5v96l-24 81v-191v-2q-2 -5 -3.5 -9.5t-3.5 -9.5h-1l-7 -15q-2 -5 -5 -9t-6 -7q-6 -6 -16 -11q-4 -1 -7 -2t-6 -1
q-8 -4 -18 -2l-13 2v429z" />
    <glyph glyph-name="n" unicode="n" horiz-adv-x="337" 
d="M127 386l-13 37l-1 -368q0 -14 -7 -22v-1q-2 -5 -5.5 -9t-7.5 -8q-12 -9 -30 -9q-15 0 -24 6q-7 6 -12 14q-2 5 -3 9.5t-1 9.5v687l6 5l5 2.5t5 3.5h1l1 1q3 1 5.5 2t7.5 2t9.5 1.5t9.5 0.5h7l5 -5h1q3 0 9 -2q3 -1 5 -2.5t6 -3.5q12 -7 20 -26q2 -7 3.5 -14.5t3.5 -15.5
q3 -17 3 -35l10 -32l24 -46l23 -105l21 -64l-8 305l13 27q3 7 13 11l2 1h2q3 1 13 1q5 0 10.5 -1t12.5 -4q18 0 28 -10q6 -8 10 -22q1 -8 -2 -21l13 -651q0 -5 -2.5 -10t-5.5 -9q-5 -5 -12 -7.5t-18 -2.5q-6 -2 -11 -3.5t-8 -2.5q-5 -1 -9 -1.5t-8 -0.5q-7 0 -16 3
q-2 1 -6 2t-8 3q-12 3 -17.5 15.5t-7.5 17.5q-4 11 -6.5 23.5t-5.5 26.5q-2 15 -4 32.5t-4 37.5l-12 89z" />
    <glyph glyph-name="o" unicode="o" horiz-adv-x="319" 
d="M263 712q11 -10 19 -19q5 -5 9.5 -10.5t7.5 -10.5l2 -2l13 -50v-15l-11 -281v-147q0 -11 -1 -20.5t-2 -19.5l-4 -18l-4 -18q-5 -19 -14 -33q-11 -30 -40 -47q-30 -18 -75 -18q-12 -3 -23 -3q-5 0 -9.5 0.5t-9.5 1.5q-10 2 -18 6t-16 9q-7 5 -13.5 10t-12.5 12
q-6 5 -12 11.5t-12 12.5q-7 6 -12 25q-4 14 -5 31q-2 10 -3 19.5t-2 20.5q-1 10 -1.5 20.5t-0.5 21.5q-3 51 -3 111l-1 2l11 135v181v12t2 11q2 14 4 21q3 12 9 20q10 18 27 30q17 10 31 10h23q2 0 2.5 0.5t2.5 0.5q2 2 5 2.5t5 2.5l15 6h38h10t11 -1q6 -2 13.5 -4t17.5 -7
l2 -1q7 -5 13.5 -10t11.5 -11zM195 100q14 21 18 44q5 30 -1 65l-1 1v413q0 4 -5 9q-6 9 -19 17l-2 1l-1 1q-4 4 -7 6.5t-6 4.5q-8 4 -12 5v1q-2 0 -4.5 0.5t-4.5 0.5q-5 0 -13 -2l-1 -1q-6 0 -10 -3l-5 -5v-10.5t-2 -12.5q-1 -9 -2 -17.5t-2 -16.5q-2 -9 -3 -19.5t-2 -21.5
v-350q-2 -20 -0.5 -37.5t4.5 -32.5q1 -7 3 -13l4 -12q3 -10 10 -19q2 -4 5.5 -7t6.5 -5q8 -4 18 -4q26 5 34 20z" />
    <glyph glyph-name="p" unicode="p" horiz-adv-x="307" 
d="M191 224l-73 -5l5 -179l-2 -3q-3 -6 -6 -9.5t-6 -7.5q-13 -16 -37 -19q-2 0 -3 -0.5t-2 -0.5q-12 0 -19 5q-11 7 -14 14q-5 10 -5 21q-2 92 -2.5 173.5t-1.5 152.5v121v108q0 24 -0.5 43t0.5 34q0 24 0.5 30t0.5 8l1 1q3 9 19 18q5 4 11 6.5t11 4.5h1q12 3 27 8l5 1h4
q28 -6 53 -9h1q11 -3 21 -5t21 -4t18.5 -3.5t14.5 -2.5q15 -3 30 -21q10 -15 17 -29v-1q6 -16 13 -40l1 -3q-1 -38 -1.5 -73.5t-2.5 -67.5l-1 -55q-1 -14 -1 -26.5v-24.5q-1 -12 -1.5 -22.5t-1.5 -20.5q-1 -8 -1.5 -15t-1.5 -12v-1q-3 -22 -20 -41q-8 -7 -15 -13.5
t-15 -11.5q-9 -6 -18.5 -11.5t-20.5 -9.5zM118 302l51 2q1 2 2.5 2.5t2.5 2.5q2 2 3.5 5t3.5 8q2 3 3.5 8.5t3.5 11.5q0 2 0.5 7.5t1.5 13.5q1 13 3 35q1 10 1 21t1 23q1 11 1 22.5t1 23.5q1 26 1 56t1 63q-1 6 -1 12t-1 11l-2 8t-2 9l-3 3l-2 2l-1 1l-5 2.5t-11 2.5
q-8 2 -14.5 2.5t-13.5 1.5h-21z" />
    <glyph glyph-name="q" unicode="q" horiz-adv-x="341" 
d="M70 4q-21 8 -32 28q-5 8 -9 17t-6 18q-4 11 -6.5 22.5t-4.5 22.5v2v2q1 71 2 137t1 126q1 25 1.5 50t1.5 51q2 25 2.5 48t2.5 43q0 21 1 38.5t2 31.5q3 20 4.5 29.5t3.5 14.5q8 21 35 35q11 7 23.5 11t23.5 8q14 3 29 5.5t31 4.5l4 1l5 -2q5 -1 9.5 -3t9.5 -4h1
q5 -2 10.5 -4t10.5 -5q7 -2 13.5 -5t12.5 -5q34 -13 47 -38q5 -12 9.5 -24t7.5 -26v-2v-16.5t1 -32.5q1 -20 1 -43v-51q0 -27 -0.5 -56.5t-1.5 -60.5v-62.5t-2 -59.5t-3 -55t-3 -49q-5 -45 -9 -66q-5 -24 -13.5 -40t-19.5 -27q-7 -7 -15.5 -12t-17.5 -10q1 -4 1 -14
q0 -8 2 -18v-21v-7l-6 -6q-2 -2 -3.5 -4t-3.5 -3l-2 -2q-6 -5 -12.5 -8.5t-14.5 -5.5q-6 -2 -10 -2q-7 0 -13 2q-8 3 -15 8q-5 2 -8.5 4.5t-8.5 4.5l-6 5l-1 7q-2 10 -2 19v18v13q-5 1 -10.5 2t-11.5 4q-10 3 -19 7.5zM123 503v-64v-29.5t-1 -25.5q0 -26 -3 -38
q-3 -14 -3 -44q-1 -15 -1 -31.5v-33.5v-64q1 -15 1 -25v-17q0 -5 0.5 -10t1.5 -10q2 -6 3 -11.5t3 -10.5l3 -6v15t-1 14q0 20 0.5 26t0.5 8l1 2v2q3 9 12 15q4 2 6.5 3t4.5 3q9 3 15 3q4 1 12 0h1q8 -3 23 -13q7 -5 12 -11q1 5 1 10t1 11q2 20 2.5 43t2.5 50q1 26 1.5 54.5
t2.5 60.5q1 31 1 59.5v54.5v49.5t-1 41.5q0 25 -1 32t-1 9q-6 18 -21 23q-8 5 -17 9.5l-17 8.5q-5 2 -8 2h-5q-3 0 -5.5 0.5t-4.5 0.5v-1h-2q-5 0 -10 -5l-3.5 -3.5l-3.5 -3.5q-3 -5 -3 -10v-28v-50v-65z" />
    <glyph glyph-name="r" unicode="r" horiz-adv-x="334" 
d="M54 -5q-4 2 -7.5 4.5t-6.5 6.5q-8 6 -12 15l-3 3v565l-12 71v38q0 9 5 19q2 5 5 8.5t6 6.5q5 2 9 4.5t10 2.5q12 9 25 10q5 1 8.5 1.5t8.5 0.5h23q19 0 36.5 1t33.5 1q27 0 53 -3q30 -3 45 -15v-1q5 -5 9.5 -11.5t9.5 -13.5q3 -8 6.5 -14t5.5 -14q2 -7 4 -13.5t3 -11.5
q2 -6 2 -10.5v-7.5v-18q-1 -7 -1 -14.5t-1 -16.5t-1 -18.5v-19.5l-3 -42q-1 -26 -2.5 -53t-1.5 -56v-3l-1 -1q-2 -8 -4 -14.5t-4 -14.5q-5 -13 -8 -23q-3 -12 -9 -21q-2 -8 -7 -13t-12 -10l-14 -10t-15 -11h-1l-12 -8t-14 -9q18 -9 33 -18q21 -11 39 -24q11 -7 17 -13.5
t10 -12.5l2 -4v-4q0 -5 1 -10t1.5 -8.5t1.5 -8.5q2 -7 4 -19q2 -5 2 -8.5v-6.5v-3l-1 -4q-3 -5 -3 -13q-1 -5 -0.5 -9.5t1.5 -9.5v-8t1 -9q2 -5 2 -9v-7v-8q3 -12 3 -23q0 -10 -3 -20q-2 -5 -6 -11.5t-13 -11.5l-4 -2h-5q-8 0 -11 -1q-5 -2 -8.5 -2t-5.5 -1q-4 -1 -10 -1h-5
q-10 1 -20 10l-5 5v3l-11 4v12q-1 17 -1.5 34t-1.5 33q-1 13 -1.5 26t-1.5 26q-1 17 -2.5 21.5t-1.5 5.5l-1 1q0 3 -15 13q-8 5 -16.5 9.5t-17.5 9.5h-1q-14 5 -24 11v-168l-1 -1q-1 -10 -8 -20q-4 -4 -8 -7t-9 -6q-12 -5 -28 -5q-14 0 -24 6zM202 392q1 2 2 3.5t1 2.5v2
v268h-73v-348h6q0 1 6 4q4 2 9 5t10 7q10 6 21 15q6 10 9 20l1 1l4 10z" />
    <glyph glyph-name="s" unicode="s" horiz-adv-x="350" 
d="M118 8q-13 5 -21.5 11t-15.5 14q-11 15 -16 33q-3 12 -3 20q-2 5 -3.5 12t-3.5 15q-1 10 -1.5 18.5t-0.5 17.5q0 10 0.5 18t1.5 16q3 20 12 29q4 3 8.5 6t10.5 3q9 0 14 -5q14 0 27 -10q5 -4 9 -8l9 -9l6 -7l-1 -8q-2 -9 -3.5 -17t-1.5 -16v-2q-1 -12 0 -25q0 -7 1 -10.5
t2 -5.5l2 -4v-4v-2q7 -1 16 -1.5t20 -0.5q20 0 30 10q14 12 21 34v1q1 1 1 4v4.5t-1 6.5q-2 8 -4 17l-4 18q-2 11 -5 21t-5 21q-6 22 -6 41q0 2 -2.5 10t-11.5 21q-8 12 -17.5 24t-20.5 24q-12 12 -22.5 23t-21.5 21t-18 16.5t-11 10.5l-2 2q-9 9 -21 38q-6 14 -11.5 27.5
t-10.5 29.5q-11 32 -18 58q-8 30 -8 44v2l1 1q2 9 5.5 18.5t7.5 20.5q5 11 11.5 20.5t13.5 18.5q8 10 16.5 18t17.5 16q11 7 23.5 12.5t25.5 7.5h2h1q34 0 62 -11q16 -6 29.5 -12t25.5 -14q24 -16 39 -31q19 -17 23 -27h1q2 -5 3.5 -13t3.5 -28q1 -14 1 -28t1 -28
q1 -17 1 -35.5v-38.5v-8l-7 -6q-2 -1 -3 -2.5t-3 -2.5l-1 -2h-3q-3 -3 -12 -5q-8 -3 -19 -3q-10 0 -19 3l-10 5h-2q-3 2 -5.5 4t-4.5 3l-6 6v148q-2 2 -4.5 5.5t-10.5 11.5q-15 15 -49 21q-4 1 -10 1t-10 -2q-2 -1 -3 -1q-6 -5 -10 -10.5t-6 -10.5q-7 -15 -7 -37v-5l-4 -4
l-1.5 -3t-2.5 -3q-1 -2 -1 -4t-1 -4q0 -2 -0.5 -2.5t-0.5 -2.5q2 -5 4.5 -9.5t4.5 -11.5q4 -8 7.5 -16.5t8.5 -17.5q5 -8 8.5 -16t7.5 -16q3 -7 4.5 -9t2.5 -3l6 -5v-8q0 -2 0.5 -3t0.5 -2l4 -3q6 -5 14 -11t18 -16q9 -9 18.5 -20.5t18.5 -23.5q9 -13 18.5 -27t18.5 -29
q17 -31 30 -65q7 -15 11 -31t7 -31q6 -30 6 -55v-28t-2 -27v-1v-2q-10 -28 -49 -55q-34 -21 -106 -32l-1 1h-1q-18 0 -32.5 2t-25.5 7z" />
    <glyph glyph-name="t" unicode="t" horiz-adv-x="283" 
d="M108 518q-2 32 -6 66.5t-6 70.5l-90 1h-2q-5 3 -11 5.5t-11 4.5q-12 5 -19 11q-13 7 -14 19q-4 12 3 24q4 8 9 13q7 5 17 9h3l323 11l4 -4q2 0 8 -4q5 -3 8 -6l5 -5h1v-2q2 -5 5 -6q4 -5 6.5 -11.5t2.5 -15.5q0 -7 -2 -13.5t-4 -12.5q-5 -7 -11.5 -12t-14.5 -7
q-3 -1 -8.5 -1h-20.5h-44h-41q3 -34 5.5 -65.5t4.5 -60.5q1 -14 2 -26.5t2 -26.5q3 -30 3 -51l1 -6q1 -9 1.5 -16.5t0.5 -14.5l1.5 -12t0.5 -6q0 -14 3 -29q11 -18 1 -42v-1l-6 -21l5 -233l-2 -6q-5 -5 -7.5 -9.5t-7.5 -7.5q-6 -6 -16 -11q-10 -7 -19 -8q-2 -1 -6 -1
q-8 0 -18 4q-3 2 -7 4t-7 4t-7 5l-8 6l-4 5l6 251v76v18q-1 8 -2 17.5t-2 20.5q-2 11 -2 24t-2 27q-1 14 -2.5 28.5t-1.5 28.5z" />
    <glyph glyph-name="u" unicode="u" horiz-adv-x="347" 
d="M329 719l15 -56l-12 -25v-212l-12 -24l-1 -188l-12 -141l-11 -11v-22l-4 -3q-6 -6 -12 -11t-14 -10q-6 -2 -10.5 -5.5t-8.5 -6.5l-4 -6h-131q-20 0 -38 8q-7 4 -13.5 8.5t-11.5 9.5q-6 6 -11 12.5t-9 14.5l-1 3v656q0 11 12 21l6 4t7 4l2 1l22 10l16 -6l2 -2q1 -1 3 -1
q6 -6 7 -14q6 -9 7 -22q0 -7 1 -13t2 -13v-1q1 -8 1.5 -17t1.5 -18v-1v-274l16 -14l-16 -31v-5l11 -219l17 -17q1 -2 4.5 -3.5t14.5 -2.5q9 -1 17 -1h16q5 3 9 6t6 8l1 1q1 2 5 6v121l11 320h11v170l6 5q2 2 4 3.5t5 3.5l2 1q2 2 4.5 3t5.5 3q6 4 15 8l4 2h5q9 0 15 -3
q2 -1 3.5 -1t3.5 -2h1z" />
    <glyph glyph-name="v" unicode="v" horiz-adv-x="331" 
d="M10 667q0 4 -0.5 9t-0.5 10l-10 21l3 6q3 10 9 14q4 6 10 9.5t14 5.5l1 1h1q10 2 22 4q1 0 2 0.5t3 0.5q17 0 31 -17v-1q7 -9 9 -24q1 -5 1 -10.5v-10.5q-1 -5 -1.5 -10.5t-0.5 -11.5l37 -181v-2q0 -5 -0.5 -8t0.5 -5v-2q0 -2 0.5 -5t0.5 -5q0 -3 0.5 -6t-0.5 -6l1 -2
q1 -3 2 -6.5t2 -7.5q2 -5 4 -9t4 -9l1 -2l12 -71q1 -4 1 -7.5t1 -8.5q0 -4 0.5 -7.5t0.5 -6.5q2 -8 2 -10q0 -1 4 -20q2 -5 2.5 -11t2.5 -11l23 167q4 39 6.5 74t5.5 65q1 14 2 26.5t3 26.5q1 23 3 46q2 10 2.5 19t1.5 15q1 14 3 19t2.5 10t2.5 10q6 11 19 14t24 4
q18 2 29 -6q11 -5 14 -15q6 -11 6 -23v-2l-15 -146l-7 -62l-4 -14v-57l-4 -13l-9 -36l3 -29l-2 -4q-1 -2 -1 -7q-2 -6 -2 -5v-2v-4t-1 -7t-1 -9.5t-1 -9.5l-2 -27l-10 -44q-3 -20 -5.5 -37t-5.5 -33q-3 -14 -5.5 -26.5t-5.5 -26.5t-5 -23.5t-5 -15.5q-5 -14 -12.5 -24
t-17.5 -18q-19 -19 -37 -22q-3 0 -4.5 -0.5t-4.5 -0.5q-10 0 -18 5q-3 4 -5.5 7t-4.5 5v1q-3 5 -5.5 8.5t-4.5 8.5l-26 135q-14 64 -24 122.5t-20 109.5q-5 20 -8.5 42t-7.5 42q-3 22 -7 40t-7 34q-3 17 -5.5 30.5t-4.5 23.5q-3 18 -3 20q-2 6 -2 13q0 5 -0.5 9t-0.5 10z
" />
    <glyph glyph-name="w" unicode="w" horiz-adv-x="413" 
d="M73 20q-3 5 -6 9t-5 9l-1 3v2q-4 28 -6 55q-2 11 -3 20.5t-2 19.5q-2 14 -2 17.5v5.5v2q0 1 -0.5 3t-0.5 5q-1 5 -1.5 9.5t-2.5 8.5q-2 8 -2.5 15t-2.5 16v1l-5 257l-11 165l-2 12l-5 9q-1 3 -1.5 6.5t-1.5 6.5q-1 5 -1 13q0 11 4 16v1q3 4 4.5 7.5t3.5 5.5q9 10 32 10
q28 0 37 -15q4 -5 7 -10t5 -10q1 -3 2 -7.5t2 -10.5q1 -5 1.5 -10.5t2.5 -10.5q1 -7 2 -14.5t3 -15.5v-1q0 -18 1.5 -35t2.5 -31q2 -14 2.5 -27t1.5 -26q0 -13 0.5 -22t0.5 -14v-18q0 -7 0.5 -14.5t0.5 -17.5v-37q3 10 3 19q2 7 2.5 12.5t1.5 11.5q0 3 0.5 4.5t0.5 3.5v2v12
q0 10 3 22q0 5 1 11t2 11q2 14 4 19q0 4 2 8q1 5 4 8.5t7 6.5q6 4 15 7q5 1 9.5 1.5t12.5 0.5q15 0 26 -6q9 -5 17 -13q7 -8 8 -17l1 -1v-2q1 -16 2 -29.5t2 -26.5q0 -11 1 -21t1 -19q1 -12 3 -15v-1v-3q1 0 2 -4.5t6 -16.5q2 -5 4 -11.5t5 -13.5l14 281l1 24q1 7 1 13.5
t1 13.5q1 6 1 11v11q1 6 2 11l2 10h1q3 7 6 13t8 9q7 7 20 7q8 0 26 -5v-1q18 -7 24 -23q3 -7 5 -14t2 -15q1 -8 0.5 -15.5t-1.5 -15.5l7 -22l-9 -22v-36v-28l-8 -27l-2 -172l-4 -19l8 -20l-12 -21v-150l-10 -10l2 -87l-2 -3q-6 -12 -16 -19q-7 -7 -16 -12q-12 -5 -25 -5
q-8 -2 -14.5 -0.5t-11.5 3.5t-9 5t-7 6l-6 8t-5 9v2v2q-5 24 -6 42v1q-2 9 -2.5 17t-1.5 16q-1 9 -1 13v5t-0.5 4t-2.5 13q-5 15 -9 36q-2 10 -4 19l-4 18q-3 9 -4.5 15l-2.5 10q-2 4 -3 8t-3 9l-6 -58v-1q-1 -2 -1.5 -5t-1.5 -5v-1q-1 -2 -1 -4.5v-4.5v-10q0 -4 -1.5 -8
t-3.5 -12q-2 -5 -3.5 -10.5t-3.5 -12.5q-1 -7 -3.5 -14.5t-5.5 -15.5q0 -14 -3 -27q0 -5 -1 -10.5t-1 -10.5q0 -6 -0.5 -9.5t-1.5 -7.5q-2 -18 -21 -28l-13.5 -4.5t-17.5 -4.5q-3 -1 -7 -1q-12 0 -19 7q-7 3 -13 11v1z" />
    <glyph glyph-name="x" unicode="x" horiz-adv-x="371" 
d="M127 2q-3 -18 -23 -21q-5 -1 -12 -1h-17q-20 0 -31 8q-4 4 -8 8.5t-7 9.5q-3 6 -4 12t-3 13v1q0 5 1 9t3 8q2 2 4 7l1 1l5 6q2 6 3.5 12t3.5 12v1q2 5 4 11l4 12t3.5 11t4.5 9q0 4 3 24q2 11 4 22.5t4 23.5t4 23l4 22q2 15 3 19q1 3 1 4v4l1 3q2 5 4 8t4 7q6 10 15 21
q1 2 2 6.5t4 10.5q4 15 12 33q4 8 7 16.5t8 18.5q-2 4 -4 9t-5 12l-8 22t-8 23q-5 14 -9.5 29t-9.5 32l-1 1q-1 2 -1 4t-1 4q-2 4 -3 12q-1 1 -2 3.5l-3 7.5q-3 5 -6 13t-8 19q-4 11 -7.5 21.5l-7.5 22.5q-5 12 -9.5 25.5t-9.5 27.5l-5 7l-1 1q-1 4 -4 8l-3 9q-7 9 -6 19
q2 11 12 16q1 1 3 2t7 6l5 5h19q5 0 10.5 -0.5t10.5 -0.5q8 -1 19 -5q4 -2 8 -3.5t7 -3.5q8 -3 11.5 -9.5t5.5 -10.5q2 -6 5 -13t5 -15t4 -14.5t4 -13.5l5 -10l2 -2l9 -20q1 -3 3 -11q3 -9 3 -16q0 -4 0.5 -7.5t1.5 -8.5q0 -2 1 -6.5t6 -13.5l6 -9l80 180q3 22 26 22
q11 0 35 -11l2 -1l2 -2q6 -7 11 -14q4 -8 7 -11v-1q2 -3 4 -6.5t4 -7.5l7 -11l-41 -40q0 -4 -4 -14l-16 -50l-1.5 -4.5t-0.5 -3.5l-1 -2v-7l-5 -5q-1 -1 -2.5 -3t-3.5 -7q-2 -4 -3 -8t-3 -9v-1q-2 -5 -3.5 -11t-3.5 -12l-4 -16l-4 -16v-1q-2 -6 -3.5 -12t-3.5 -11
q-3 -12 -9 -18q0 -5 -4 -15q-2 -5 -4.5 -10t-4.5 -10q-2 -4 -3.5 -7.5t-3.5 -8.5l1 -1q1 -4 4 -8q4 -10 4 -17v-3q0 -3 3 -12q2 -13 9 -32l6 -16l6 -16q2 -7 3.5 -9.5t2.5 -3.5l4 -3l1 -5q5 -17 9.5 -32t7.5 -29q4 -12 7 -23l6 -22q2 -11 3.5 -17t2.5 -9l5 -19q2 -4 4 -14
q3 -8 3 -15q2 -8 3 -15.5t3 -14.5v-1q1 -6 1.5 -12t2.5 -11q1 -7 1.5 -11.5t0.5 -7.5v-10l-21 -12l-12 -8q-6 -4 -8 -7l-5 -5h-7q-7 0 -16 3q-4 2 -7 2.5t-6 2.5q-5 2 -8 4t-8 4l-6 4l-1 7q-2 8 -3 15.5t-3 15.5v1q-1 7 -2 12.5t-1 11.5q-3 9 -3 16q-2 6 -3.5 13t-3.5 14v1
q-1 6 -1.5 12.5t-2.5 14.5q-1 6 -1 12.5v13.5q-3 5 -5.5 12t-5.5 15l-6 20t-5 20l-6 18l-8 -26l-12 -83l-12 -47q-2 -10 -4.5 -19t-4.5 -18q-2 -8 -3.5 -14.5t-3.5 -13.5t-4 -11.5t-4 -9.5z" />
    <glyph glyph-name="y" unicode="y" 
d="M284 745q18 -8 22 -27q2 -6 2.5 -12.5t0.5 -14.5q-2 -7 -3 -14t-3 -15v-1l-52 -155v-22v-8.5t-2 -9.5q-2 -15 -5 -18q0 -1 -5 -15q-4 -14 -11 -31q-2 -11 -5.5 -21t-5.5 -24q-2 -18 -3.5 -35t-3.5 -32q0 -12 -1 -24.5t-1 -25.5q-2 -12 -2 -16v-6v-4l-1 -2l1 -1v-14v-16
l6 -24l-6 -13l-4 -112l-1 -1q-2 -5 -4.5 -9t-6.5 -7q-4 -6 -15 -11q-5 -2 -11.5 -2h-13.5q-1 0 -1.5 -1t-1.5 -1q-9 0 -15.5 2.5t-11.5 5.5q-11 11 -12 19q-3 6 -5 12.5t0 14.5l1 48l5 155l1 29l-1 39q-6 5 -13 21t-15 44q-5 12 -10 26t-9 30q-5 15 -9.5 31.5t-9.5 33.5
q-9 35 -19 75.5t-21 86.5h-10l-4 12q0 3 -0.5 6.5t-0.5 6.5q0 7 1 10q0 6 5 16q5 8 11.5 14t17.5 9q23 6 43 -2h1h2q4 -3 8.5 -6t8.5 -7q6 -7 8 -15h2q0 -4 1 -7.5t1 -6.5l60 -187l1 6l12 25q5 20 8.5 38t8.5 35q2 14 6 28t7 27q4 14 6.5 23.5t5.5 14.5q6 22 24 32
q18 11 46 0h1z" />
    <glyph glyph-name="z" unicode="z" horiz-adv-x="350" 
d="M33 24q-4 5 -8 10.5t-8 11.5l-5 7l15 30l22 89l46 160l69 207l3 3q2 3 7 9t12 19q7 11 13 22.5t13 23.5q5 8 10.5 17.5t10.5 19.5l-89 10h-67q-11 0 -20 6q-9 5 -13 12q-8 9 -9 18q-3 11 3 20q2 8 4.5 12.5t5.5 7.5q9 8 18 10q9 3 22 3q26 0 49.5 -0.5t43.5 -1.5h1h18.5
t17.5 -1q9 0 18 -0.5t17 -1.5q15 -2 27 -3q7 -1 11.5 -2t7.5 -2l1 -1q8 -4 15 -7t14 -5q25 -6 25 -37q0 -2 -1 -6t-5 -13q-2 -6 -5.5 -13t-7.5 -16q-5 -8 -9.5 -16.5t-9.5 -19.5q-5 -10 -10.5 -20t-10.5 -21q-11 -24 -25.5 -51t-30.5 -57l-33 -101l-74 -251h143l5 -3
q5 -4 9.5 -8t8.5 -8q6 -8 10 -14q8 -12 1 -24q-2 -4 -4.5 -8t-7.5 -8q-3 -2 -7 -4.5t-8 -4.5q-7 -4 -19 -7l-2 -1h-116h-15t-14 -2q-6 -1 -11.5 -1.5t-9.5 -1.5q-3 -1 -6 -1q-1 0 -1 -1l-5 -5h-6q-13 0 -26 8q-5 3 -9 6.5t-9 6.5z" />
    <glyph glyph-name="space" unicode="&#xa0;" horiz-adv-x="152" 
 />
    <glyph glyph-name="z.001" horiz-adv-x="325" 
 />
    <glyph glyph-name="percent.001" horiz-adv-x="0" 
 />
    <glyph glyph-name="numbersign.001" horiz-adv-x="833" 
 />
    <glyph glyph-name="asterisk.001" horiz-adv-x="833" 
 />
    <glyph glyph-name="quotedblbase.001" horiz-adv-x="833" 
 />
    <glyph glyph-name="quoteright.001" horiz-adv-x="833" 
 />
  </font>
</defs>
</svg>
